<svg width="17" height="15" viewBox="0 0 17 15" fill="none" xmlns="http://www.w3.org/2000/svg">
<path d="M1 6.46875C0.447715 6.46875 0 6.91647 0 7.46875C0 8.02103 0.447715 8.46875 1 8.46875V6.46875ZM16.7071 8.17586C17.0976 7.78533 17.0976 7.15217 16.7071 6.76164L10.3431 0.397682C9.95262 0.0071579 9.31946 0.0071579 8.92893 0.397682C8.53841 0.788206 8.53841 1.42137 8.92893 1.8119L14.5858 7.46875L8.92893 13.1256C8.53841 13.5161 8.53841 14.1493 8.92893 14.5398C9.31946 14.9303 9.95262 14.9303 10.3431 14.5398L16.7071 8.17586ZM1 8.46875H16V6.46875H1V8.46875Z" fill="#405CD2"/>
</svg>
