<svg width="474" height="455" viewBox="0 0 474 455" fill="none" xmlns="http://www.w3.org/2000/svg">
<path d="M66.4131 302.526L313.732 392.645L372.524 235.188L125.205 145.07L66.4131 302.526Z" fill="#405CD2"/>
<path opacity="0.2" d="M66.4219 302.532L149.535 332.817L208.327 175.361L125.214 145.076L66.4219 302.532Z" fill="black"/>
<path d="M74.4266 298.486C85.0435 288.834 95.5992 279.133 106.093 269.384L137.544 239.98L168.896 210.273C179.296 200.362 189.66 190.392 199.991 180.362C189.384 190.001 178.829 199.701 168.324 209.465L136.874 238.868L105.581 268.494C95.1422 278.459 84.7573 288.457 74.4266 298.486Z" fill="#182F8E"/>
<path d="M128.255 154.334C129.492 168.544 130.821 182.773 132.242 197.022L136.559 239.617L141.157 282.145C142.749 296.293 144.378 310.47 146.044 324.677C144.817 310.454 143.488 296.225 142.057 281.99L137.74 239.395L133.142 196.866C131.597 182.627 129.968 168.45 128.255 154.334Z" fill="#182F8E"/>
<path d="M110.247 110.05L193.374 140.353L208.339 175.36L125.197 145.078L110.247 110.05Z" fill="#405CD2"/>
<path d="M406.928 218.153L323.786 187.87L289.406 204.899L372.533 235.202L406.928 218.153Z" fill="#405CD2"/>
<path d="M279.376 184.307C285.275 176.428 293.829 168.873 304.134 168.231C306.744 168.069 309.437 168.634 311.89 169.759M311.89 169.759C315.625 171.473 318.8 174.485 320.267 178.201C322.563 184.014 322.442 190.864 317.206 194.926C314.477 197.043 311.165 197.692 308.38 195.27C304.126 191.571 304.79 183.612 306.679 178.955C307.985 175.735 309.755 172.641 311.89 169.759ZM370.124 129.164C360.419 130.803 349.787 134.95 344.5 143.819C343.161 146.065 342.431 148.719 342.309 151.414M342.309 151.414C342.123 155.519 343.348 159.721 345.98 162.726C350.098 167.428 356.244 170.455 362.252 167.659C365.383 166.201 367.476 163.554 366.597 159.97C365.255 154.494 357.875 151.442 352.87 150.99C349.409 150.677 345.848 150.835 342.309 151.414ZM342.309 151.414C329.873 153.449 318.389 159.462 311.769 169.788" stroke="#405CD2" stroke-width="2" stroke-linecap="round"/>
<path d="M360.377 123.76C363.037 124.597 369.083 126.722 371.983 128.529" stroke="#405CD2" stroke-width="2" stroke-linecap="round"/>
<path d="M371.983 128.529C370.403 130.827 366.949 136.225 365.778 139.435" stroke="#405CD2" stroke-width="2" stroke-linecap="round"/>
<path d="M289.839 129.791C290.796 123.942 293.26 117.526 298.584 114.315C299.932 113.501 301.528 113.053 303.15 112.971M303.15 112.971C305.622 112.847 308.156 113.571 309.974 115.146C312.818 117.611 314.661 121.303 312.995 124.929C312.128 126.82 310.54 128.088 308.379 127.571C305.077 126.779 303.216 122.345 302.928 119.332C302.729 117.249 302.813 115.105 303.15 112.971ZM322.944 75.0816C318.218 78.6587 313.695 83.8333 313.342 90.0408C313.252 91.6131 313.601 93.2333 314.286 94.7064M314.286 94.7064C315.33 96.9501 317.153 98.8526 319.396 99.7245C322.904 101.089 327.028 100.994 329.458 97.8286C330.724 96.1784 331.104 94.1822 329.637 92.5129C327.396 89.9626 322.606 90.3875 319.807 91.5397C317.872 92.3364 316.015 93.4119 314.286 94.7064ZM314.286 94.7064C308.212 99.2552 303.754 105.664 303.094 113.02" stroke="#405CD2" stroke-width="2" stroke-linecap="round"/>
<path d="M316.235 74.9099C317.888 74.616 321.708 74.0675 323.76 74.2247" stroke="#405CD2" stroke-width="2" stroke-linecap="round"/>
<path d="M323.76 74.2246C323.556 75.8918 323.215 79.736 323.483 81.7759" stroke="#405CD2" stroke-width="2" stroke-linecap="round"/>
<path d="M232.886 185.421C232.886 185.421 239.229 174.089 238.81 166.045C238.253 155.358 222.15 152.368 215.428 155.074C208.706 157.781 210.079 164.726 212.018 168.875C213.956 173.024 220.27 174.73 225.82 171.41C231.369 168.09 239.606 154.497 234.207 140.581C228.808 126.666 218.983 122.103 212.657 130.044C210.34 132.952 209.647 136.046 209.626 139.068C209.605 142.09 212.844 147.363 218.522 145.16C224.2 142.957 230.385 128.113 225.611 118.425C221.336 109.749 211.81 103.249 204.821 105.96C197.833 108.672 200.395 115.275 200.945 116.694C201.496 118.113 203.545 121.775 208.973 120.548C214.401 119.321 229.852 110.251 218.813 89.7327" stroke="#405CD2" stroke-width="2" stroke-linecap="round"/>
<g filter="url(#filter0_d_107_464)">
<circle cx="414.774" cy="108.171" r="41.76" transform="rotate(36.0274 414.774 108.171)" fill="white"/>
<circle cx="414.774" cy="108.171" r="41.26" transform="rotate(36.0274 414.774 108.171)" stroke="#F4F7FF"/>
</g>
<g filter="url(#filter1_d_107_464)">
<circle cx="272.797" cy="168.101" r="29.4198" transform="rotate(21.0274 272.797 168.101)" fill="white"/>
<circle cx="272.797" cy="168.101" r="28.9198" transform="rotate(21.0274 272.797 168.101)" stroke="#F4F7FF"/>
</g>
<g clip-path="url(#clip0_107_464)">
<path d="M277.015 183.097C285.221 180.898 290.091 172.463 287.892 164.257C285.693 156.051 277.258 151.181 269.052 153.38C260.846 155.579 255.976 164.013 258.175 172.22C260.374 180.426 268.808 185.296 277.015 183.097Z" fill="#2CA01C"/>
<path d="M261.755 171.255C262.656 174.614 266.097 176.62 269.464 175.749L270.324 175.519L269.722 173.274L268.863 173.504C266.932 174.63 264.455 173.978 263.33 172.047C263.321 172.032 263.313 172.016 263.304 172.001C262.155 170.047 262.791 167.534 264.731 166.363L265.16 166.248C265.667 165.986 266.225 165.837 266.795 165.81L268.882 165.251L272.076 177.172C272.404 178.436 273.694 179.196 274.958 178.87L270.514 162.283L266.181 163.444C262.803 164.369 260.815 167.856 261.739 171.234L261.739 171.235L261.755 171.255ZM276.592 160.657L275.733 160.887L276.366 163.252L277.226 163.021C279.152 161.898 281.623 162.548 282.746 164.472C282.755 164.487 282.763 164.502 282.772 164.516C283.916 166.464 283.281 168.968 281.349 170.135L280.92 170.25C280.413 170.512 279.855 170.662 279.285 170.688L277.198 171.248L274.004 159.328C273.677 158.063 272.386 157.303 271.122 157.629L275.573 174.24L279.906 173.079C283.304 172.111 285.275 168.573 284.308 165.174C283.361 161.85 279.947 159.878 276.594 160.72L276.592 160.657Z" fill="white"/>
</g>
<g clip-path="url(#clip1_107_464)">
<path d="M404.539 109.747C405.401 109.164 407.197 106.921 407.299 106.727C407.401 106.532 407.766 106.144 407.386 105.755C407.007 105.366 406.627 105.56 406.145 105.845C405.678 106.039 403.678 107.594 402.919 108.282C402.159 108.865 400.261 110.614 400.261 110.614C400.261 110.614 399.21 111.497 399.59 111.975C399.969 112.454 400.349 112.274 400.831 112.08C401.4 111.885 403.692 110.33 404.539 109.747ZM446.75 120.752C447.042 120.842 447.699 121.051 447.699 121.724C447.699 121.724 447.027 123.085 446.837 123.189C446.545 123.279 446.078 123.279 445.129 122.89C444.18 122.502 439.522 121.335 438.281 121.036C437.04 120.737 434.295 120.259 434.295 120.259C434.295 120.259 433.916 120.064 433.346 120.947C432.777 121.919 430.966 124.55 430.966 124.55C430.908 124.774 430.718 124.939 430.499 124.939C430.12 124.939 428.689 124.834 428.119 124.55C427.55 124.266 427.36 124.251 427.74 123.668C428.119 123.085 429.36 120.453 429.93 119.975C430.397 119.496 429.55 119.586 429.258 119.496C428.966 119.406 423.462 119.107 421.841 119.197C420.22 119.197 414.526 119.197 412.424 119.392C410.336 119.481 402.919 120.274 400.918 120.558C398.918 120.947 390.932 122.023 389.895 122.307C388.858 122.591 386.683 122.875 386.683 122.875C385.953 123.04 385.193 122.98 384.493 122.681C383.441 122.203 381.733 121.515 383.164 121.021C384.595 120.528 391.72 119.078 393.91 118.778C396.1 118.39 403.035 117.418 405.883 117.313C408.73 117.208 416.629 116.73 419.578 116.73C422.527 116.73 426.513 116.924 428.324 117.119C430.032 117.208 431.171 117.313 431.55 117.418C431.93 117.522 431.93 117.223 432.31 116.835C432.689 116.446 433.74 114.981 433.74 114.981C433.74 114.981 434.12 114.397 433.361 114.891C432.689 115.369 431.55 115.369 430.981 114.891C430.412 114.308 430.222 113.814 429.93 114.009C429.317 114.353 428.689 114.652 428.032 114.891C427.462 115.085 424.995 115.668 423.564 114.696C422.133 113.62 422.045 113.231 421.856 112.753C421.666 112.08 421.564 112.08 421.096 112.364C420.629 112.648 419.008 113.53 418.337 113.829C417.738 114.188 417.037 114.323 416.337 114.218C415.388 114.128 414.336 113.829 413.869 113.052C413.489 112.274 413.402 111.691 412.92 112.08C412.438 112.469 409.781 114.024 408.365 114.412C406.934 114.906 406.554 114.995 405.795 114.906C404.933 114.816 404.087 114.412 403.795 113.934C403.503 113.455 403.415 113.351 403.035 113.545C402.656 113.844 401.605 114.622 400.845 114.622C400.086 114.532 398.086 114.039 397.049 111.99C396.013 109.942 396.757 109.074 397.721 107.998C398.67 107.026 400.378 105.471 400.378 105.471C400.378 105.471 402.568 103.811 403.225 103.527C403.984 103.138 405.123 102.45 405.883 102.45C406.919 102.316 407.956 102.63 408.744 103.333C409.795 104.215 410.453 105.082 410.555 105.471C410.657 105.859 411.124 107.026 410.365 107.908C409.606 108.79 407.416 110.824 407.416 110.824C407.416 110.824 406.554 111.317 406.934 111.9C407.313 112.483 408.744 111.512 409.211 111.227C409.679 110.839 412.161 108.7 412.92 108.013C413.679 107.235 418.439 102.465 418.906 101.972C419.286 101.478 423.286 97.4861 423.856 97.0973C424.425 96.7086 424.615 96.4095 425.754 96.6188C426.353 96.7235 426.922 96.9179 427.462 97.202C427.462 97.202 428.601 97.6954 427.652 98.3683C426.791 99.0411 423.754 101.673 422.994 102.45C422.235 103.228 420.045 105.471 419.388 106.248C418.716 107.22 416.818 109.657 416.541 110.046C416.249 110.54 416.059 111.018 416.541 111.407C417.023 111.706 417.87 111.407 418.731 110.629C419.593 109.852 422.25 107.609 423.111 106.637C424.06 105.665 429.01 100.895 429.477 100.402C429.959 100.013 432.237 98.1589 432.237 98.1589C432.237 98.1589 432.529 97.7702 433.186 97.7702C433.843 97.7702 434.514 97.8599 434.894 98.0692L436.033 98.6524C436.033 98.6524 436.5 98.8468 435.741 99.4299C434.982 100.013 430.791 103.318 429.755 104.589C428.616 105.859 426.426 108.386 425.579 109.463C424.717 110.629 424.148 111.123 424.82 111.9C425.491 112.678 426.25 112.483 426.63 112.394C427.579 111.841 428.44 111.153 429.2 110.345C430.149 109.373 432.996 106.159 433.39 105.859C433.682 105.471 434.821 104.394 434.821 104.394C434.821 104.394 435.011 103.916 435.682 103.916C436.354 103.916 436.631 104.005 437.303 104.11C437.872 104.2 439.201 104.499 438.544 105.276C437.785 106.054 435.974 107.998 435.595 108.386C435.215 108.865 433.697 110.629 433.405 111.108C433.113 111.586 432.733 112.184 433.113 112.469C433.492 112.753 434.544 112.379 435.493 111.781C436.807 111.063 438.018 110.181 439.099 109.149C440.34 107.983 442.326 106.129 442.326 106.129C442.326 106.129 442.705 105.351 444.136 105.65C445.567 106.039 445.947 106.129 445.947 106.129C445.947 106.129 447.085 106.428 446.326 107.101C445.567 107.773 443.099 110.121 442.15 110.988C441.201 111.96 438.252 114.981 437.77 115.564C437.288 116.147 435.872 117.508 436.442 117.612C437.011 117.717 441.391 118.494 442.34 118.793C443.041 119.392 446.472 120.558 446.75 120.752ZM397.604 96.5142C396.757 96.3945 395.896 96.3945 395.034 96.5142C393.603 96.7086 389.428 97.0973 388.668 97.4861C387.909 97.8748 387.238 96.9927 386.96 96.7086C386.581 96.4095 385.821 95.5423 385.821 95.5423C385.821 95.5423 385.442 95.0488 386.099 94.8544C386.858 94.6601 391.136 93.9722 392.465 93.7779C393.793 93.6881 400.261 93.2844 402.072 93.2844C403.78 93.2844 409.766 93.6732 411.387 94.062C411.387 94.062 411.679 93.9722 412.059 94.7498C412.234 95.2432 412.336 95.7815 412.351 96.3048C412.351 96.3048 412.643 96.888 411.591 96.7983C410.35 96.7086 408.554 96.6039 407.313 96.4992C406.072 96.3945 403.138 96.2002 402.656 96.2002C402.276 96.2002 402.086 96.2002 401.897 96.5889C401.605 96.9777 400.466 98.5328 400.188 98.9215C399.911 99.3103 398.655 100.985 397.604 102.45C396.553 103.916 395.224 105.755 393.998 107.609C392.859 109.553 391.808 111.302 391.34 112.095C391.048 112.558 390.8 113.052 390.581 113.56C390.494 113.754 390.391 114.053 389.822 114.053C389.252 114.053 386.785 113.964 386.785 113.964C386.785 113.964 385.734 114.053 386.405 112.887C387.077 111.616 388.493 109.194 389.063 108.312C389.632 107.34 392.771 102.959 393.428 102.181C393.998 101.478 397.604 96.5142 397.604 96.5142Z" fill="#ED1C24"/>
<path d="M404.16 108.775C405.021 108.192 406.832 105.949 406.919 105.755C407.007 105.56 407.401 105.172 407.007 104.783C406.613 104.394 406.248 104.588 405.766 104.873C405.298 105.067 403.298 106.727 402.539 107.31C401.78 107.893 399.882 109.642 399.882 109.642C399.882 109.642 398.83 110.525 399.225 111.003C399.619 111.482 399.984 111.302 400.466 111.108C401.021 110.913 403.313 109.358 404.16 108.775ZM401.692 92.3274H401.225C398.947 92.3274 393.428 92.7162 392.187 92.8208C390.858 92.9105 386.581 93.703 385.821 93.8974C385.062 94.0918 385.442 94.5703 385.442 94.5703C385.442 94.5703 386.201 95.4525 386.581 95.7366C386.96 96.0207 387.53 96.9029 388.289 96.5141C389.15 96.1253 393.326 95.7366 394.655 95.5422C395.501 95.4226 396.363 95.4226 397.224 95.5422C397.224 95.5422 393.618 100.402 393.049 101.284C392.479 102.061 389.34 106.443 388.683 107.414C388.114 108.386 386.595 110.824 385.923 111.99C385.354 113.156 386.391 113.067 386.391 113.067C386.391 113.067 388.858 113.156 389.428 113.156C389.895 113.156 389.997 112.767 390.099 112.573C390.318 112.065 390.566 111.586 390.858 111.108C391.34 110.33 392.377 108.581 393.516 106.622C394.655 104.663 396.086 102.824 397.122 101.359C398.159 99.8934 399.4 98.2486 399.692 97.8598C399.984 97.4711 401.123 95.916 401.4 95.5272C401.678 95.1385 401.78 95.1385 402.159 95.1385C402.641 95.1385 405.576 95.3329 406.817 95.4375C408.146 95.5422 409.956 95.6319 411.095 95.7366C412.234 95.8412 411.854 95.2431 411.854 95.2431C411.898 94.7347 411.796 94.2264 411.562 93.7778C411.183 93.0003 410.891 93.09 410.891 93.09C409.387 92.6264 403.4 92.3274 401.692 92.3274ZM446.37 119.78C446.662 119.975 447.319 120.169 447.231 120.752C447.231 120.752 446.662 122.113 446.37 122.217C446.078 122.322 445.611 122.307 444.662 121.918C443.713 121.53 439.055 120.363 437.814 120.064C436.675 119.87 433.916 119.391 433.916 119.391C433.916 119.391 433.536 119.197 432.967 120.169C432.397 121.051 430.587 123.773 430.587 123.773C430.528 123.997 430.339 124.161 430.105 124.161C429.725 124.161 428.294 124.072 427.725 123.773C427.156 123.474 426.966 123.474 427.345 122.89C427.725 122.307 428.966 119.676 429.535 119.197C430.105 118.719 429.243 118.808 428.966 118.719C428.674 118.719 423.17 118.33 421.549 118.42C419.928 118.42 414.234 118.42 412.132 118.614C410.029 118.808 402.524 119.496 400.626 119.78C398.626 120.079 390.639 121.246 389.603 121.53C388.552 121.724 386.376 122.113 386.376 122.113C385.646 122.277 384.887 122.217 384.186 121.918C383.135 121.44 381.427 120.752 382.857 120.259C384.288 119.765 391.413 118.315 393.603 118.016C395.793 117.717 402.729 116.655 405.576 116.55C408.423 116.356 416.322 115.967 419.271 115.967C422.221 115.967 426.207 116.162 428.017 116.356C429.725 116.446 430.864 116.55 431.244 116.655C431.623 116.76 431.623 116.461 432.003 116.072C432.383 115.683 433.434 114.218 433.434 114.218C433.434 114.218 433.813 113.724 433.054 114.128C432.295 114.607 431.244 114.607 430.674 114.038C430.105 113.47 429.915 113.067 429.623 113.156C429.331 113.246 428.294 113.829 427.725 114.038C427.156 114.248 424.776 114.816 423.345 113.739C421.914 112.767 421.826 112.274 421.637 111.885C421.447 111.407 421.345 111.407 420.877 111.691C420.396 112.08 418.789 112.857 418.118 113.156C417.505 113.5 416.818 113.665 416.118 113.635C415.168 113.545 414.117 113.246 413.65 112.468C413.183 111.691 413.168 111.108 412.701 111.497C412.234 111.885 409.562 113.44 408.146 113.829C406.525 114.024 406.145 114.218 405.386 114.024C404.525 113.829 403.678 113.53 403.386 113.052C403.094 112.573 403.006 112.468 402.627 112.753C402.247 113.037 401.196 113.829 400.436 113.724C399.677 113.62 397.677 113.141 396.538 111.093C395.487 109.044 396.246 108.177 397.195 107.205C398.144 106.129 399.955 104.678 399.955 104.678C399.955 104.678 402.145 103.123 402.802 102.734C403.561 102.346 404.7 101.658 405.459 101.658C406.218 101.658 407.27 101.658 408.306 102.54C409.343 103.422 409.927 104.289 410.117 104.678C410.204 104.977 410.686 106.233 409.927 107.115C409.168 107.998 407.08 110.031 407.08 110.031C407.08 110.031 406.218 110.525 406.598 111.197C406.978 111.781 408.408 110.809 408.788 110.42C409.27 110.121 411.737 107.893 412.497 107.205C413.256 106.428 418.016 101.658 418.483 101.269C418.862 100.776 422.863 96.7832 423.52 96.3945C424.089 96.0057 424.279 95.7216 425.418 95.916C426.017 96.0207 426.586 96.215 427.126 96.4991C427.126 96.4991 428.265 96.9776 427.316 97.6654C426.455 98.443 423.418 100.97 422.659 101.747C421.899 102.525 419.724 104.768 419.067 105.545C418.308 106.323 416.41 108.76 416.118 109.239C415.826 109.717 415.636 110.211 416.118 110.599C416.599 110.988 417.446 110.599 418.308 109.822C419.169 109.044 421.826 106.801 422.688 105.83C423.549 104.858 428.586 100.088 429.054 99.699C429.521 99.3102 431.813 97.3664 431.813 97.3664C431.813 97.3664 432.105 96.9776 432.762 96.9776C433.419 96.9776 434.091 97.0673 434.47 97.2767L435.609 97.8598C435.609 97.8598 436.091 98.0542 435.317 98.6374C434.543 99.2205 430.368 102.525 429.229 103.796C428.178 105.067 425.9 107.594 425.053 108.656C424.192 109.822 423.622 110.405 424.294 111.093C424.951 111.87 425.725 111.676 426.104 111.571C426.484 111.467 427.813 110.495 428.674 109.523C429.623 108.551 432.47 105.426 432.85 105.037C433.142 104.648 434.281 103.572 434.281 103.572C434.281 103.572 434.47 103.093 435.142 103.093C435.814 103.093 436.091 103.183 436.763 103.288C437.332 103.482 438.661 103.676 438.004 104.454C437.245 105.231 435.434 107.086 435.055 107.564C434.675 108.042 433.156 109.807 432.864 110.285C432.572 110.764 432.207 111.362 432.572 111.646C432.937 111.93 434.003 111.556 434.952 110.958C436.296 110.255 437.537 109.373 438.661 108.327C439.902 107.16 441.888 105.306 441.888 105.306C441.888 105.306 442.18 104.529 443.698 104.828C445.129 105.127 445.509 105.306 445.509 105.306C445.509 105.306 446.647 105.605 445.888 106.278C445.129 106.951 442.661 109.194 441.698 110.166C440.749 111.048 437.799 114.158 437.318 114.741C436.836 115.324 435.42 116.685 435.989 116.79C436.558 116.894 440.924 117.762 441.888 118.061C442.749 118.405 446.078 119.676 446.37 119.78Z" fill="black"/>
</g>
<g filter="url(#filter2_d_107_464)">
<circle cx="262.454" cy="62.3742" r="36.0013" transform="rotate(51.0274 262.454 62.3742)" fill="white"/>
<circle cx="262.454" cy="62.3742" r="35.5013" transform="rotate(51.0274 262.454 62.3742)" stroke="#F4F7FF"/>
</g>
<path d="M290.069 63.6393L286.792 75.8682L284.654 77.0678L287.86 65.1044L290.069 63.6393Z" fill="#E79226"/>
<path d="M278.973 60.6809L276.706 62.1159L276.762 62.2621L287.763 65.1661L287.887 65.1118L290.06 63.6444L278.973 60.6809Z" fill="#FEEF6F"/>
<path d="M276.713 62.1177L287.894 65.1136L284.685 77.0906L273.504 74.0947L276.713 62.1177Z" fill="url(#paint0_linear_107_464)"/>
<path d="M285.032 68.9635C284.955 68.3521 284.763 67.761 284.444 67.2088C284.142 66.6756 283.767 66.225 283.3 65.8736C282.846 65.5259 282.317 65.2675 281.711 65.1052C281.106 64.9429 280.512 64.9005 279.945 64.9747C279.364 65.0452 278.816 65.2411 278.286 65.5586C277.733 65.8774 277.279 66.2953 276.906 66.7863C276.534 67.2773 276.277 67.8575 276.098 68.5244C275.925 69.1709 275.871 69.8057 275.946 70.4239C276.02 71.0489 276.204 71.6382 276.521 72.1972C276.812 72.7199 277.191 73.1569 277.651 73.5065C278.112 73.856 278.654 74.1181 279.267 74.2822C279.859 74.4408 280.446 74.4815 281.013 74.4072C281.58 74.333 282.14 74.1477 282.667 73.8438C283.221 73.5181 283.682 73.1021 284.056 72.6042C284.429 72.1132 284.703 71.5231 284.875 70.8834C285.055 70.2097 285.109 69.5749 285.032 68.9635ZM281.667 72.2923C281.095 72.686 280.452 72.7982 279.704 72.5977C278.955 72.3971 278.446 71.9835 278.149 71.3496C277.85 70.7225 277.833 69.9446 278.075 69.0396C278.323 68.1141 278.739 67.4597 279.301 67.0488C279.877 66.6415 280.516 66.5428 281.272 66.7452C282.02 66.9458 282.523 67.3576 282.82 67.9915C283.101 68.6285 283.134 69.4032 282.886 70.3287C282.642 71.2406 282.24 71.8986 281.667 72.2923Z" fill="white"/>
<path d="M276.391 58.9097L276.375 58.9709L274.859 70.3441L273.402 72.4336L273.315 72.3228L274.668 61.3945L274.733 61.2589L276.334 58.96L276.391 58.9097Z" fill="#0C99D7"/>
<path d="M264.977 57.4924L276.391 58.9098L274.758 61.3022L274.591 61.4104L263.896 60.1642L264.449 58.2919L264.977 57.4924Z" fill="#93C9EE"/>
<path d="M274.758 61.3021L273.402 72.4336L262.148 71.0446L263.462 60.2884L264.228 59.9612L274.758 61.3021Z" fill="url(#paint1_linear_107_464)"/>
<path d="M272.363 62.8632C272.405 62.517 272.357 62.2342 272.226 62.0167C272.11 61.8473 271.947 61.7232 271.736 61.6667C271.688 61.6539 271.627 61.6375 271.564 61.6279C271.274 61.5939 271.021 61.6649 270.836 61.8412C270.693 61.9636 270.602 62.1432 270.541 62.3677C270.52 62.4494 270.503 62.5397 270.493 62.6318L270.14 65.5277L266.892 65.1535L267.245 62.2576C267.283 61.925 267.235 61.6422 267.105 61.4179C266.994 61.2348 266.828 61.1176 266.631 61.0647C266.583 61.0519 266.529 61.0373 266.48 61.0314C266.176 60.9938 265.924 61.0647 265.724 61.2374C265.582 61.3598 265.49 61.5394 265.43 61.7639C265.408 61.8456 265.391 61.9359 265.377 62.0416L264.5 69.589C264.458 69.9352 264.507 70.218 264.658 70.441C264.773 70.6104 264.941 70.7209 265.159 70.7792C265.22 70.7956 265.281 70.8121 265.344 70.8217C265.627 70.8538 265.866 70.7792 266.052 70.6029C266.18 70.4768 266.271 70.304 266.327 70.0931C266.349 70.0114 266.366 69.9211 266.376 69.829L266.71 66.8406L269.957 67.2148L269.623 70.2032C269.582 70.5494 269.63 70.8322 269.777 71.0466C269.892 71.216 270.056 71.3401 270.266 71.3966C270.314 71.4094 270.375 71.4258 270.438 71.4354C270.728 71.4694 270.981 71.3984 271.167 71.2221C271.295 71.0961 271.399 70.9269 271.457 70.7092C271.479 70.6275 271.496 70.5372 271.506 70.4451L272.363 62.8632Z" fill="white"/>
<path d="M255.836 50.3967L249.423 58.6491L248.858 62.8812L248.887 62.8817L255.943 54.1599L255.979 53.9435L255.876 50.5461L255.836 50.3967Z" fill="#6AB96C"/>
<path d="M255.836 50.3967L255.934 54.0846L255.936 54.1581L264.464 61.0964L264.496 61.0832L264.546 57.6029L255.836 50.3967Z" fill="#9ACDA0"/>
<path d="M255.934 54.0845L264.496 61.0832L257.418 69.8866L248.856 62.8879L255.934 54.0845Z" fill="url(#paint2_linear_107_464)"/>
<path d="M261.333 61.1036C261.273 60.4822 261.11 59.9207 260.836 59.417C260.563 58.9134 260.188 58.4628 259.705 58.0855C259.223 57.7083 258.708 57.4535 258.156 57.3058L258.129 57.2985C257.564 57.1472 256.978 57.1288 256.368 57.2279C255.729 57.3265 255.141 57.5337 254.597 57.8766C254.057 58.2058 253.571 58.6591 253.138 59.214C252.715 59.7572 252.404 60.345 252.206 60.9483L252.15 61.1593C252.004 61.7037 251.95 62.2582 252 62.8333C252.056 63.4392 252.221 63.994 252.495 64.4976C252.768 65.0012 253.157 65.4555 253.66 65.8382C254.129 66.2118 254.644 66.4666 255.202 66.6161L255.209 66.6179C255.76 66.7656 256.351 66.7926 256.957 66.7071C257.597 66.6085 258.195 66.3896 258.744 66.0553C259.284 65.726 259.782 65.2832 260.207 64.7333C260.631 64.1833 260.94 63.6023 261.138 62.999L261.188 62.8152C261.337 62.2572 261.388 61.6873 261.333 61.1036ZM258.61 63.4811C258.017 64.2487 257.36 64.7144 256.682 64.8756C256.317 64.9601 255.96 64.9592 255.626 64.8698C255.334 64.7914 255.039 64.6395 254.762 64.4195C254.153 63.9427 253.856 63.3669 253.857 62.6526C253.856 62.4116 253.891 62.173 253.955 61.9348C254.084 61.4516 254.349 60.9536 254.742 60.439C255.353 59.6546 256.006 59.1803 256.694 59.0073C257.063 58.9092 257.417 58.9237 257.75 59.0131C258.049 59.0933 258.337 59.2434 258.621 59.4652C259.216 59.9384 259.514 60.5142 259.519 61.2303C259.524 61.4577 259.489 61.6963 259.423 61.9413C259.288 62.4449 259.02 62.9565 258.61 63.4811Z" fill="white"/>
<path d="M250.715 50.7243L249.452 61.8079L247.719 65.3624L247.652 65.2057L248.868 54.4888L248.922 54.2847L250.572 50.8757L250.715 50.7243Z" fill="#761519"/>
<path d="M237.617 53.1152L239.381 49.5544L250.715 50.7243L248.952 54.3655L248.884 54.6172L237.726 53.2538L237.617 53.1152Z" fill="#E94740"/>
<path d="M248.952 54.3655L247.721 65.3556L236.518 64.1554L237.617 53.1153L248.952 54.3655Z" fill="url(#paint3_linear_107_464)"/>
<path d="M245.415 62.9362C245.361 62.8123 245.257 62.7114 245.135 62.6205C245.005 62.5345 244.84 62.4685 244.629 62.412C244.439 62.361 244.209 62.3212 243.96 62.2982L240.993 62.021C241.08 61.8037 241.27 61.5557 241.556 61.2529C241.872 60.9147 242.318 60.5309 242.879 60.0977C243.073 59.9455 243.22 59.8317 243.329 59.7515C243.395 59.6962 243.502 59.6228 243.639 59.5209C244.522 58.8385 245.103 58.2501 245.412 57.7495C245.584 57.4602 245.723 57.1617 245.827 56.8541C245.857 56.7675 245.879 56.6858 245.901 56.6042C245.961 56.3796 245.999 56.1564 246.019 55.9209C246.046 55.7094 246.034 55.5383 246.002 55.384C245.97 55.2296 245.914 55.1125 245.829 55.0239C245.738 54.9267 245.577 54.847 245.359 54.7887C245.189 54.7431 244.973 54.707 244.71 54.6804L241.279 54.3663C240.866 54.3286 240.535 54.364 240.304 54.4917C240.116 54.5945 239.994 54.7514 239.939 54.9556C239.926 55.0032 239.91 55.0644 239.9 55.1275C239.873 55.4193 239.961 55.6617 240.165 55.8258C240.292 55.9253 240.441 55.9945 240.645 56.0492C240.775 56.0839 240.926 56.1172 241.099 56.1269L243.97 56.3786C243.958 56.4262 243.95 56.4825 243.939 56.5233C243.893 56.6934 243.821 56.8563 243.716 57.0032C243.572 57.2127 243.289 57.4796 242.844 57.8054C242.727 57.8906 242.534 58.036 242.282 58.2164C241.293 58.9141 240.571 59.5376 240.075 60.083C239.725 60.4633 239.462 60.8451 239.25 61.2551C239.135 61.4942 239.039 61.7164 238.977 61.9478C238.933 62.1111 238.898 62.2695 238.89 62.4351C238.871 62.6706 238.871 62.8603 238.908 63.0233C238.938 63.1844 239.011 63.3207 239.103 63.4111C239.195 63.5015 239.34 63.562 239.564 63.6222C239.836 63.6951 240.222 63.7546 240.713 63.7987L243.831 64.087C244.378 64.139 244.789 64.1031 245.046 63.9895C245.254 63.8922 245.393 63.7254 245.452 63.5076C245.468 63.4464 245.478 63.3833 245.481 63.3184C245.498 63.1991 245.476 63.062 245.415 62.9362Z" fill="white"/>
<g filter="url(#filter3_d_107_464)">
<circle cx="169.269" cy="111.729" r="25.3064" transform="rotate(21.0274 169.269 111.729)" fill="white"/>
<circle cx="169.269" cy="111.729" r="24.8064" transform="rotate(21.0274 169.269 111.729)" stroke="#F4F7FF"/>
</g>
<path d="M157.119 103.399C158.962 100.348 162.003 98.2238 165.294 97.0304C170.463 95.5206 176.353 96.9355 180.137 100.66C177.536 104.662 175.128 108.675 172.719 112.687C169.515 112.548 166.308 112.16 163.131 111.889C161.086 114.183 158.965 116.435 156.904 118.671C153.968 114.095 154.213 107.918 157.119 103.399Z" fill="#5367FF" stroke="#5367FF" stroke-width="0.09375"/>
<path d="M180.138 100.66C180.785 101.422 181.373 102.2 182.021 102.962C178.838 106.683 177.301 111.584 173.819 115.136C170.77 115.579 167.684 114.224 164.576 114.682C162.363 116.585 160.734 119.016 158.324 120.66C157.842 120.041 157.343 119.364 156.904 118.671C158.965 116.435 161.086 114.183 163.131 111.889C166.308 112.16 169.515 112.548 172.719 112.687C175.128 108.675 177.536 104.662 180.138 100.66Z" fill="#00FFC4" stroke="#00FFC4" stroke-width="0.09375"/>
<path d="M173.819 115.136C177.301 111.584 178.838 106.683 182.021 102.962C182.522 103.887 182.965 104.829 183.482 105.813C180.634 109.132 178.431 112.965 176.196 116.682C175.774 117.231 175.398 117.956 174.735 118.32C171.675 118.953 168.572 117.54 165.496 118.115C163.63 119.425 162.306 121.339 160.77 122.935C159.946 122.221 159.105 121.448 158.324 120.66C160.734 119.017 162.363 116.585 164.576 114.682C167.684 114.224 170.77 115.579 173.819 115.136Z" fill="#00EBB4" stroke="#00EBB4" stroke-width="0.09375"/>
<path d="M176.196 116.682C178.431 112.965 180.634 109.132 183.482 105.813C183.852 106.96 184.105 108.14 184.358 109.319C181.803 112.311 179.636 115.573 177.784 119.062C177.16 120.04 176.641 121.177 175.671 121.811C172.713 122.354 169.791 121.142 166.829 121.436C165.371 122.139 164.289 123.302 163.117 124.364C162.354 123.882 161.533 123.417 160.771 122.935C162.306 121.339 163.63 119.425 165.496 118.115C168.572 117.54 171.675 118.953 174.735 118.32C175.398 117.956 175.774 117.231 176.196 116.682Z" fill="#00D8A5" stroke="#00D8A5" stroke-width="0.09375"/>
<path d="M177.784 119.062C179.636 115.573 181.802 112.311 184.358 109.319C185.28 116.305 180.406 123.41 173.492 125.263C170.064 126.181 166.337 125.746 163.117 124.364C164.289 123.302 165.371 122.139 166.829 121.436C169.791 121.142 172.713 122.354 175.671 121.811C176.641 121.177 177.16 120.04 177.784 119.062Z" fill="#00C798" stroke="#00C798" stroke-width="0.09375"/>
<defs>
<filter id="filter0_d_107_464" x="369.011" y="66.4084" width="91.5259" height="91.5259" filterUnits="userSpaceOnUse" color-interpolation-filters="sRGB">
<feFlood flood-opacity="0" result="BackgroundImageFix"/>
<feColorMatrix in="SourceAlpha" type="matrix" values="0 0 0 0 0 0 0 0 0 0 0 0 0 0 0 0 0 0 127 0" result="hardAlpha"/>
<feOffset dy="4"/>
<feGaussianBlur stdDeviation="2"/>
<feComposite in2="hardAlpha" operator="out"/>
<feColorMatrix type="matrix" values="0 0 0 0 0.25098 0 0 0 0 0.360784 0 0 0 0 0.823529 0 0 0 0.19 0"/>
<feBlend mode="normal" in2="BackgroundImageFix" result="effect1_dropShadow_107_464"/>
<feBlend mode="normal" in="SourceGraphic" in2="effect1_dropShadow_107_464" result="shape"/>
</filter>
<filter id="filter1_d_107_464" x="239.369" y="138.674" width="66.8555" height="66.8557" filterUnits="userSpaceOnUse" color-interpolation-filters="sRGB">
<feFlood flood-opacity="0" result="BackgroundImageFix"/>
<feColorMatrix in="SourceAlpha" type="matrix" values="0 0 0 0 0 0 0 0 0 0 0 0 0 0 0 0 0 0 127 0" result="hardAlpha"/>
<feOffset dy="4"/>
<feGaussianBlur stdDeviation="2"/>
<feComposite in2="hardAlpha" operator="out"/>
<feColorMatrix type="matrix" values="0 0 0 0 0.25098 0 0 0 0 0.360784 0 0 0 0 0.823529 0 0 0 0.19 0"/>
<feBlend mode="normal" in2="BackgroundImageFix" result="effect1_dropShadow_107_464"/>
<feBlend mode="normal" in="SourceGraphic" in2="effect1_dropShadow_107_464" result="shape"/>
</filter>
<filter id="filter2_d_107_464" x="222.451" y="26.3718" width="80.0049" height="80.0049" filterUnits="userSpaceOnUse" color-interpolation-filters="sRGB">
<feFlood flood-opacity="0" result="BackgroundImageFix"/>
<feColorMatrix in="SourceAlpha" type="matrix" values="0 0 0 0 0 0 0 0 0 0 0 0 0 0 0 0 0 0 127 0" result="hardAlpha"/>
<feOffset dy="4"/>
<feGaussianBlur stdDeviation="2"/>
<feComposite in2="hardAlpha" operator="out"/>
<feColorMatrix type="matrix" values="0 0 0 0 0.25098 0 0 0 0 0.360784 0 0 0 0 0.823529 0 0 0 0.19 0"/>
<feBlend mode="normal" in2="BackgroundImageFix" result="effect1_dropShadow_107_464"/>
<feBlend mode="normal" in="SourceGraphic" in2="effect1_dropShadow_107_464" result="shape"/>
</filter>
<filter id="filter3_d_107_464" x="139.956" y="86.4153" width="58.6265" height="58.6267" filterUnits="userSpaceOnUse" color-interpolation-filters="sRGB">
<feFlood flood-opacity="0" result="BackgroundImageFix"/>
<feColorMatrix in="SourceAlpha" type="matrix" values="0 0 0 0 0 0 0 0 0 0 0 0 0 0 0 0 0 0 127 0" result="hardAlpha"/>
<feOffset dy="4"/>
<feGaussianBlur stdDeviation="2"/>
<feComposite in2="hardAlpha" operator="out"/>
<feColorMatrix type="matrix" values="0 0 0 0 0.25098 0 0 0 0 0.360784 0 0 0 0 0.823529 0 0 0 0.19 0"/>
<feBlend mode="normal" in2="BackgroundImageFix" result="effect1_dropShadow_107_464"/>
<feBlend mode="normal" in="SourceGraphic" in2="effect1_dropShadow_107_464" result="shape"/>
</filter>
<linearGradient id="paint0_linear_107_464" x1="282.254" y1="63.7846" x2="279.188" y2="75.2268" gradientUnits="userSpaceOnUse">
<stop offset="0.00562" stop-color="#FFE516"/>
<stop offset="1" stop-color="#FBB92B"/>
</linearGradient>
<linearGradient id="paint1_linear_107_464" x1="264.085" y1="60.2115" x2="272.833" y2="72.2677" gradientUnits="userSpaceOnUse">
<stop offset="0.00562" stop-color="#138BCC"/>
<stop offset="1" stop-color="#04659E"/>
</linearGradient>
<linearGradient id="paint2_linear_107_464" x1="257.536" y1="58.7939" x2="254.849" y2="68.8196" gradientUnits="userSpaceOnUse">
<stop stop-color="#25A146"/>
<stop offset="1" stop-color="#078B53"/>
</linearGradient>
<linearGradient id="paint3_linear_107_464" x1="243.258" y1="53.9158" x2="242.127" y2="64.7806" gradientUnits="userSpaceOnUse">
<stop stop-color="#DA2331"/>
<stop offset="1" stop-color="#BB2435"/>
</linearGradient>
<clipPath id="clip0_107_464">
<rect width="30.7653" height="30.7653" fill="white" transform="translate(254.193 157.361) rotate(-15)"/>
</clipPath>
<clipPath id="clip1_107_464">
<rect width="71.2509" height="40.2223" fill="white" transform="translate(378.798 87.9314)"/>
</clipPath>
</defs>
</svg>
