<svg width="498" height="381" viewBox="0 0 498 381" fill="none" xmlns="http://www.w3.org/2000/svg">
<g opacity="0.5">
<path d="M193.5 300.743C261.339 300.743 316.333 247.594 316.333 182.031C316.333 116.468 261.339 63.3193 193.5 63.3193C125.661 63.3193 70.6664 116.468 70.6664 182.031C70.6664 247.594 125.661 300.743 193.5 300.743Z" stroke="#989DB1" stroke-width="2" stroke-linecap="round" stroke-dasharray="7 14"/>
</g>
<path d="M193.5 244.045C228.938 244.045 257.667 216.28 257.667 182.031C257.667 147.782 228.938 120.018 193.5 120.018C158.062 120.018 129.333 147.782 129.333 182.031C129.333 216.28 158.062 244.045 193.5 244.045Z" fill="#75DFC3"/>
<path fill-rule="evenodd" clip-rule="evenodd" d="M235.023 264.16C234.847 261.011 234.631 257.863 234.374 254.718C233.86 248.455 233.187 242.186 232.067 235.995C231.005 229.907 229.372 223.925 227.188 218.123C226.227 215.514 224.96 213.021 223.412 210.69C221.903 208.505 219.866 206.707 217.477 205.453C215.277 204.205 212.724 202.039 210.615 200.64C209.735 200.057 207.922 200.095 207.318 199.232C206.528 198.098 207.04 196.371 206.243 195.244C205.309 193.967 204.063 192.931 202.617 192.228C201.059 191.22 199.209 190.719 197.337 190.798C195.981 190.664 194.612 190.852 193.349 191.346C192.086 191.84 190.967 192.625 190.089 193.633C189.212 194.681 188.702 195.971 188.63 197.318C188.617 197.47 188.636 197.624 188.686 197.768C188.737 197.913 188.817 198.046 188.923 198.16C188.807 198.31 188.692 198.46 188.578 198.61C188.392 198.339 188.107 198.147 187.78 198.073C187.453 197.999 187.109 198.048 186.818 198.21C185.003 199.471 183.019 200.487 180.92 201.232C180.673 201.125 180.399 201.092 180.133 201.135C179.866 201.179 179.619 201.298 179.421 201.477C179.256 201.621 179.075 201.749 178.883 201.859C178.109 202.061 177.323 202.231 176.525 202.362C176.279 202.407 176.059 202.536 175.903 202.725C175.784 202.609 175.632 202.531 175.467 202.498C175.301 202.465 175.13 202.48 174.973 202.541C170.693 204.06 166.847 206.54 163.753 209.777C160.402 213.398 158.641 217.904 157.3 222.519C155.913 227.531 154.86 232.624 154.146 237.766C153.357 242.963 152.58 248.184 152.037 253.408C151.724 256.352 151.632 259.315 151.762 262.272C151.829 263.749 151.973 265.221 152.193 266.683C152.245 267.026 152.298 267.42 152.386 267.813C152.314 267.801 152.24 267.806 152.17 267.828C152.1 267.85 152.037 267.888 151.985 267.938C151.933 267.988 151.895 268.05 151.873 268.117C151.851 268.185 151.846 268.257 151.859 268.327C152.234 270.744 155.256 271.445 157.341 271.729C160.748 272.189 164.182 272.431 167.621 272.456C171.004 272.474 174.387 272.264 177.763 272.077C181.225 271.884 184.686 271.69 188.147 271.494C202.015 270.708 215.883 269.924 229.751 269.144C231.018 269.073 232.464 268.975 233.55 268.264C235.037 267.29 235.114 265.743 235.026 264.161L235.023 264.16Z" fill="white"/>
<path fill-rule="evenodd" clip-rule="evenodd" d="M167.421 237.125C167.411 237.107 167.408 237.086 167.412 237.066C167.416 237.046 167.428 237.028 167.444 237.016C167.461 237.003 167.482 236.997 167.503 236.998C167.524 236.999 167.544 237.008 167.559 237.022C169.199 238.569 170.18 240.653 170.309 242.865C170.397 245.141 170.335 247.42 170.121 249.688C170.003 252.191 169.897 254.696 169.755 257.201C169.608 259.739 169.45 262.277 169.315 264.817L169.01 270.529C169.048 271.176 168.978 271.824 168.805 272.45C168.748 272.627 168.634 272.782 168.48 272.891C168.326 273.001 168.139 273.061 167.948 273.062C167.756 273.063 167.569 273.005 167.414 272.896C167.259 272.788 167.144 272.634 167.085 272.458L167.077 272.434L167.056 272.45C166.93 271.743 166.924 271.021 167.039 270.313L167.357 264.072C167.583 259.661 167.783 255.25 168.025 250.839L168.107 249.369C168.22 247.39 168.31 245.413 168.376 243.438L168.399 242.778C168.465 240.793 168.413 238.918 167.421 237.125ZM208.233 200.505C209.098 200.479 209.957 200.662 210.73 201.037C211.101 201.175 211.452 201.334 211.808 201.499C212.226 201.726 212.574 202.056 212.815 202.456L212.961 202.664C214.025 204.341 214.954 206.094 215.739 207.909C216.753 209.97 217.778 212.026 218.771 214.097L219.261 215.116C219.505 215.627 219.748 216.137 219.99 216.649L220.406 217.54C220.823 218.443 221.197 219.399 220.603 220.332C219.942 221.168 219.164 221.911 218.292 222.54L216.346 224.221C217.661 225.533 218.614 227.143 219.115 228.904C219.909 228.656 220.729 228.491 221.56 228.412C222.647 228.229 222.781 229.82 221.754 229.801C220.944 229.84 220.133 229.808 219.329 229.708C219.463 230.284 219.561 230.867 219.622 231.454C219.949 234.526 219.235 237.614 218.491 240.586L218.43 240.83C217.623 244.046 216.854 247.271 216.168 250.514C215.482 253.757 214.865 257.028 214.319 260.303C213.761 263.634 213.366 266.987 212.941 270.338C212.935 270.585 212.83 270.821 212.649 270.997C212.467 271.172 212.223 271.273 211.967 271.28C211.709 271.278 211.462 271.178 211.28 271.002C211.097 270.826 210.994 270.587 210.993 270.338C211.433 266.689 212.053 263.06 212.671 259.435C213.733 253.194 215.07 247.007 216.611 240.862L216.88 239.792C217.573 237.016 218.2 234.156 217.854 231.293C217.571 228.961 216.563 226.474 214.57 225.028L214.51 224.985C214.391 224.914 214.289 224.819 214.213 224.706C214.137 224.592 214.089 224.464 214.071 224.33C214.053 224.196 214.066 224.06 214.11 223.931C214.154 223.803 214.227 223.686 214.324 223.589L215.199 222.759L216.953 221.104L217.308 220.769C217.601 220.491 217.899 220.214 218.205 219.946C218.389 219.784 218.89 219.475 218.926 219.208C218.95 219.034 218.737 218.728 218.65 218.57L218.254 217.798C218.029 217.357 217.814 216.913 217.594 216.47C217.14 215.549 216.678 214.637 216.233 213.715L213.557 208.169C212.871 206.562 212.064 205.005 211.144 203.512L210.95 203.228C210.78 202.995 210.643 202.741 210.542 202.473C210.45 202.183 210.314 201.907 210.139 201.655C209.641 201.112 208.957 200.759 208.213 200.663C208.111 200.645 208.147 200.515 208.233 200.505ZM187.667 199.05C187.679 199.051 187.691 199.056 187.699 199.064C187.708 199.072 187.714 199.082 187.716 199.094C187.717 199.105 187.715 199.117 187.708 199.127C187.702 199.137 187.692 199.144 187.681 199.148C186.849 199.378 186.079 199.783 185.426 200.332C185.101 200.593 184.828 200.908 184.619 201.262C184.551 201.399 184.503 201.546 184.477 201.696L184.468 201.746C184.432 201.977 184.342 202.196 184.206 202.388L184.179 202.425C183.398 203.663 182.759 204.981 182.273 206.353L181.133 209.309L179.992 212.266L178.892 215.124C178.69 215.649 178.481 216.173 178.272 216.697C178.182 216.924 178.085 217.149 178.002 217.379C177.984 217.469 177.959 217.558 177.929 217.645L177.939 217.661C178.283 218.036 178.684 218.359 179.128 218.618L180.323 219.552C181.176 220.218 182.05 220.866 182.877 221.562C182.981 221.667 183.056 221.796 183.093 221.937C183.131 222.078 183.13 222.226 183.092 222.367C183.054 222.507 182.979 222.636 182.874 222.741C182.769 222.845 182.638 222.922 182.494 222.964C181.524 223.27 180.573 223.636 179.617 223.982C179.23 224.124 178.828 224.243 178.443 224.397L178.211 224.494C178.12 224.534 178.164 224.533 178.167 224.696C178.182 224.869 178.21 225.04 178.25 225.209C178.572 227.092 178.914 228.971 179.276 230.847C180.551 237.481 182.062 244.066 183.81 250.601C184.69 253.901 185.628 257.185 186.523 260.48C187.418 263.775 188.594 267.006 189.717 270.224C190.034 271.131 188.543 271.523 188.236 270.618C186.942 266.833 185.757 263.014 184.534 259.208C182.361 252.443 180.648 245.529 179.134 238.604C178.384 235.17 177.697 231.724 177.075 228.265C176.957 227.611 176.842 226.956 176.729 226.3L176.564 225.336C176.457 225.007 176.435 224.657 176.5 224.318C176.566 223.978 176.716 223.659 176.939 223.389C177.586 222.923 178.327 222.593 179.114 222.422L179.166 222.404C179.617 222.241 180.072 222.084 180.525 221.922C179.858 221.414 179.199 220.894 178.533 220.387C177.995 219.977 177.45 219.576 176.919 219.156C176.692 218.998 176.5 218.797 176.356 218.566C176.212 218.334 176.118 218.076 176.081 217.807C176.093 217.24 176.234 216.682 176.495 216.173L176.515 216.122C176.716 215.596 176.919 215.07 177.125 214.547L178.409 211.303C179.224 209.241 180.005 207.163 180.862 205.118C181.195 204.307 181.578 203.515 182.009 202.747C182.219 202.378 182.449 202.017 182.691 201.669C182.923 201.321 183.253 201.044 183.641 200.869C184.322 200.524 184.858 199.948 185.542 199.593C186.193 199.245 186.923 199.059 187.667 199.05V199.05ZM189.88 195.373C189.886 195.365 189.895 195.359 189.904 195.356C189.914 195.352 189.925 195.352 189.935 195.355C189.945 195.358 189.954 195.363 189.961 195.371C189.967 195.379 189.972 195.388 189.973 195.398C189.929 196.435 189.799 197.466 189.584 198.483C189.429 199.499 189.379 200.572 189.154 201.578C189.149 201.626 189.14 201.673 189.126 201.719L189.115 201.754C189.067 201.897 188.983 202.026 188.87 202.13C188.758 202.234 188.62 202.309 188.47 202.349C188.565 202.86 188.655 203.371 188.73 203.886C188.86 204.77 188.978 205.658 189.097 206.541L189.236 207.604C189.368 208.606 189.497 209.608 189.622 210.61C189.944 210.738 190.273 210.849 190.608 210.94C191.385 211.133 192.179 211.258 192.979 211.312C194.607 211.467 196.247 211.538 197.881 211.625L198.231 211.644C200.068 211.766 201.912 211.745 203.745 211.582C204.654 211.492 205.555 211.34 206.44 211.126C206.891 211.016 207.328 210.853 207.777 210.746C207.931 210.7 208.076 210.631 208.208 210.542C208.278 210.456 208.378 210.397 208.489 210.376L208.522 210.371L208.554 210.367L208.566 210.362C208.652 210.35 208.741 210.35 208.827 210.362C208.86 209.582 208.896 208.802 208.94 208.018C209.059 205.92 209.389 203.731 208.949 201.652C208.945 201.638 208.947 201.623 208.955 201.61C208.962 201.598 208.974 201.589 208.989 201.585C209.003 201.581 209.019 201.583 209.032 201.59C209.045 201.597 209.054 201.609 209.058 201.623C209.923 203.824 209.825 206.23 209.869 208.549C209.912 210.817 209.886 213.085 209.875 215.348C210.041 215.413 210.191 215.513 210.311 215.642C210.441 215.773 210.514 215.947 210.514 216.129C210.514 216.31 210.441 216.484 210.311 216.615C210.181 216.722 210.032 216.805 209.871 216.859C209.862 218.828 209.847 220.797 209.827 222.766C209.923 222.844 210 222.941 210.052 223.051C210.104 223.16 210.131 223.28 210.129 223.401C210.128 223.521 210.099 223.64 210.044 223.749C209.989 223.857 209.91 223.953 209.812 224.028C209.739 230.407 209.619 236.781 209.519 243.156L209.311 256.532C209.283 258.313 209.237 260.096 209.22 261.878L209.234 261.883L209.279 261.903C209.357 261.938 209.472 261.995 209.499 262.053C209.504 262.064 209.507 262.076 209.506 262.087C209.624 262.103 209.734 262.151 209.825 262.224C209.916 262.297 209.984 262.394 210.022 262.502C210.059 262.611 210.065 262.728 210.038 262.839C210.01 262.95 209.952 263.052 209.868 263.133L209.811 263.2C209.735 263.276 209.642 263.333 209.538 263.365C209.434 263.397 209.324 263.405 209.217 263.386C209.217 264.498 209.226 265.61 209.223 266.722C209.223 267.063 209.217 267.402 209.21 267.742L209.196 268.556C209.187 269.021 209.143 269.611 208.651 269.82C208.535 269.881 208.407 269.917 208.275 269.924C208.143 269.931 208.011 269.91 207.888 269.862C207.766 269.814 207.656 269.74 207.567 269.646C207.478 269.551 207.411 269.439 207.372 269.317C207.323 269.178 207.314 269.029 207.347 268.885C207.339 268.666 207.304 268.412 207.309 268.208L207.327 267.357C207.327 267.226 207.335 267.095 207.339 266.965H207.323C205.348 267.058 203.363 267.012 201.383 267.011H200.503C199.769 267.011 199.036 267.011 198.303 266.98L198.028 266.969C197.48 266.944 196.903 266.936 196.334 266.888C196.407 267.452 196.473 268.017 196.535 268.583C196.533 268.846 196.424 269.097 196.232 269.283C196.04 269.469 195.78 269.574 195.508 269.575C195.238 269.567 194.982 269.46 194.791 269.276C194.6 269.091 194.49 268.843 194.481 268.583C194.139 266.08 193.999 263.551 193.675 261.046C193.381 258.802 193.127 256.553 192.868 254.305L192.781 253.556C191.831 245.378 190.916 237.195 190.034 229.005L189.625 225.178C189.212 221.32 188.797 217.461 188.447 213.597C188.246 211.388 188.06 209.178 187.888 206.967C187.76 205.342 187.68 203.727 187.628 202.106C187.52 202.002 187.443 201.872 187.404 201.729C187.365 201.586 187.367 201.436 187.408 201.294C187.462 201.114 187.523 200.936 187.589 200.757C187.585 200.582 187.581 200.406 187.577 200.23C187.578 200.195 187.588 200.159 187.606 200.128C187.623 200.096 187.648 200.068 187.677 200.047C187.707 200.026 187.741 200.011 187.778 200.004C187.814 199.997 187.852 199.998 187.888 200.006C188.142 199.412 188.422 198.823 188.655 198.235C188.983 197.25 189.392 196.293 189.88 195.373V195.373ZM168.779 205.673C172.732 203.279 177.433 201.559 182.14 201.743C182.247 201.748 182.277 201.906 182.166 201.929C179.63 202.439 177.145 203.163 174.739 204.093C172.343 205.063 170.097 206.349 168.066 207.914C164.355 210.805 161.429 214.525 159.539 218.754C158.463 221.245 157.598 223.817 156.956 226.445C156.233 229.209 155.636 231.999 155.141 234.808C154.186 240.361 153.567 245.963 153.288 251.585C152.98 257.301 153.107 263.022 152.887 268.737C152.879 268.933 152.792 269.119 152.645 269.254C152.498 269.39 152.302 269.466 152.099 269.466C151.896 269.466 151.7 269.39 151.553 269.254C151.406 269.119 151.319 268.933 151.311 268.737C150.909 262.207 150.988 255.659 151.546 249.14C151.938 243.296 152.708 237.481 153.851 231.73L153.953 231.234C155.043 225.918 156.358 220.474 158.993 215.661C161.295 211.562 164.67 208.118 168.779 205.673V205.673ZM223.616 231.076C223.62 231.064 223.628 231.053 223.638 231.046C223.649 231.038 223.662 231.034 223.675 231.034C223.688 231.034 223.701 231.038 223.712 231.046C223.723 231.053 223.731 231.064 223.735 231.076C224.096 232.34 224.293 233.643 224.321 234.954L224.331 235.052C224.446 236.224 224.532 237.397 224.612 238.57L224.642 239.01C224.964 243.799 225.368 248.583 225.975 253.345C226.58 258.094 227.398 262.802 228.283 267.506C228.348 267.756 228.311 268.021 228.179 268.245C228.047 268.47 227.83 268.636 227.574 268.71C227.315 268.776 227.039 268.741 226.806 268.613C226.574 268.485 226.402 268.273 226.328 268.024C225.778 265.326 225.334 262.622 224.934 259.899C224.237 255.105 223.72 250.291 223.382 245.458C223.214 243.032 223.11 240.604 223.069 238.174C223.05 237.046 223.081 235.915 223.143 234.788L223.158 234.528C223.147 233.362 223.302 232.201 223.619 231.076H223.616ZM180.949 261.576C180.961 261.57 180.974 261.568 180.988 261.57C181.001 261.572 181.013 261.578 181.022 261.587C181.032 261.596 181.038 261.608 181.04 261.621C181.042 261.633 181.04 261.646 181.033 261.658C180.218 262.834 179.28 263.927 178.234 264.918C177.189 265.985 176.17 267.085 175.104 268.131C174.333 268.888 173.094 267.668 173.907 266.975C175.05 266 176.245 265.073 177.408 264.12L177.917 263.703C178.85 262.896 179.866 262.183 180.949 261.576V261.576ZM217.267 260.975C217.255 260.954 217.251 260.929 217.256 260.906C217.261 260.883 217.274 260.862 217.294 260.847C217.314 260.832 217.338 260.825 217.363 260.826C217.387 260.828 217.411 260.838 217.429 260.854C218.045 261.339 218.598 261.917 219.194 262.429C219.79 262.941 220.395 263.408 221.027 263.87C221.659 264.331 222.303 264.777 222.965 265.197C223.512 265.532 224.077 265.84 224.656 266.119C224.796 266.136 224.931 266.181 225.053 266.249C225.175 266.318 225.282 266.409 225.367 266.518C225.535 266.724 225.619 266.983 225.603 267.245C225.587 267.507 225.472 267.754 225.28 267.94L225.202 267.999C224.985 268.195 224.698 268.305 224.4 268.305C224.103 268.305 223.816 268.195 223.599 267.999C223.043 267.518 222.518 266.988 221.986 266.481L221.825 266.329C221.252 265.79 220.693 265.234 220.165 264.654L219.687 264.128C218.758 263.17 217.946 262.112 217.267 260.974V260.975ZM214.426 204.689C214.323 204.623 214.387 204.447 214.513 204.488L214.745 204.566C215.733 204.873 216.688 205.272 217.596 205.759C218.536 206.307 219.425 206.933 220.253 207.631C221.97 209.093 223.468 210.78 224.703 212.642C227.211 216.312 228.763 220.515 230.016 224.72C231.331 229.216 232.4 233.775 233.219 238.379C234.072 243.047 234.73 247.758 235.162 252.483C235.375 254.809 235.518 257.139 235.59 259.471C235.627 260.673 235.626 261.873 235.616 263.073C235.616 263.382 235.616 263.691 235.616 264L235.628 264.926C235.682 265.517 235.66 266.113 235.563 266.698C235.331 267.62 233.756 267.447 233.807 266.506C233.765 266.188 233.752 265.866 233.77 265.545C233.762 265.503 233.755 265.461 233.746 265.417C233.722 265.302 233.738 265.183 233.792 265.078C233.8 264.922 233.808 264.768 233.811 264.616C233.821 263.997 233.82 263.381 233.803 262.763C233.765 261.459 233.712 260.155 233.656 258.852C233.547 256.248 233.397 253.643 233.178 251.045C232.464 241.954 230.768 232.96 228.118 224.209C226.925 220.129 225.087 216.251 222.668 212.713C221.571 211.169 220.329 209.726 218.957 208.403C217.577 207.024 216.059 205.78 214.426 204.689V204.689ZM195.781 262.98L195.968 264.286C196.062 264.939 196.154 265.592 196.242 266.245C196.838 266.167 197.448 266.133 198.022 266.084C199.027 265.998 200.039 265.956 201.047 265.916C203.132 265.833 205.227 265.688 207.315 265.698C207.337 265.698 207.357 265.698 207.377 265.698L207.48 263.122H206.014C204.771 263.122 203.529 263.11 202.286 263.099C201.167 263.09 200.048 263.089 198.929 263.066L198.449 263.055C197.599 263.034 196.665 263.08 195.781 262.98ZM207.604 259.24C207.544 259.247 207.483 259.252 207.419 259.255C207.125 259.267 206.836 259.255 206.545 259.262C205.926 259.267 205.307 259.271 204.688 259.271C203.451 259.271 202.213 259.278 200.975 259.293C199.7 259.308 198.427 259.329 197.153 259.332C196.535 259.332 195.92 259.317 195.303 259.3C195.402 260.15 195.506 260.995 195.622 261.841C196.595 261.759 197.572 261.735 198.548 261.77H198.67C199.948 261.749 201.228 261.764 202.507 261.766C203.822 261.766 205.138 261.771 206.454 261.782L207.535 261.79V261.738C207.568 260.904 207.588 260.072 207.604 259.24ZM194.827 255.183C194.947 256.184 195.06 257.186 195.174 258.189C195.248 258.177 195.327 258.167 195.406 258.16C196.024 258.097 196.641 258.043 197.262 258.006C198.499 257.936 199.736 257.893 200.975 257.861C202.249 257.829 203.523 257.804 204.798 257.786C205.417 257.778 206.035 257.778 206.655 257.786C206.948 257.786 207.241 257.779 207.528 257.798C207.563 257.798 207.595 257.804 207.628 257.807L207.65 256.303C207.654 256.052 207.658 255.801 207.662 255.55C206.709 255.607 205.732 255.585 204.776 255.585H204.556C203.355 255.591 202.152 255.575 200.951 255.551C199.712 255.526 198.475 255.486 197.238 255.409C196.737 255.378 196.239 255.338 195.74 255.284L195.491 255.257C195.274 255.228 195.05 255.209 194.827 255.183ZM207.76 250.936C205.456 251.113 203.163 251.186 200.853 251.209H200.506C198.464 251.224 196.405 251.305 194.358 251.253C194.48 252.278 194.602 253.304 194.725 254.33C195.018 254.317 195.311 254.317 195.599 254.306C196.182 254.286 196.763 254.281 197.346 254.279C198.547 254.279 199.748 254.287 200.95 254.284C202.188 254.284 203.426 254.262 204.664 254.239C205.667 254.22 206.682 254.148 207.688 254.15L207.761 250.932L207.76 250.936ZM207.858 246.56C207.555 246.634 207.242 246.67 206.93 246.666L206.038 246.709C205.624 246.729 205.211 246.747 204.797 246.762C203.418 246.809 202.039 246.855 200.66 246.899C199.247 246.942 197.827 246.969 196.414 246.923C195.721 246.902 195.035 246.867 194.345 246.811C194.174 246.797 194 246.788 193.826 246.777C193.987 248.136 194.148 249.494 194.31 250.853C196.348 250.612 198.4 250.461 200.435 250.211L202.274 249.984C204.113 249.758 205.951 249.535 207.796 249.347L207.858 246.558V246.56ZM207.956 242.135C207.555 242.206 207.149 242.244 206.741 242.247L206.668 242.251C205.955 242.304 205.241 242.33 204.526 242.347C203.125 242.38 201.724 242.397 200.322 242.405L199.48 242.41C198.356 242.417 197.234 242.419 196.111 242.394C195.39 242.378 194.671 242.344 193.951 242.309C193.735 242.298 193.515 242.291 193.291 242.281C193.442 243.568 193.593 244.854 193.745 246.14C193.982 246.104 194.219 246.076 194.446 246.039C195.026 245.945 195.605 245.868 196.19 245.801C197.456 245.654 198.729 245.548 200.003 245.459C201.309 245.368 202.616 245.291 203.922 245.202L204.848 245.139C205.156 245.118 205.464 245.098 205.773 245.08C206.329 245.084 206.884 245.048 207.435 244.973C207.579 244.916 207.739 244.903 207.891 244.935L207.953 242.134L207.956 242.135ZM208.074 236.955C208.002 237.037 207.914 237.105 207.814 237.153C207.715 237.202 207.606 237.231 207.495 237.239C206.237 237.397 204.947 237.422 203.682 237.496L203.458 237.509C202.149 237.593 200.838 237.658 199.528 237.726C198.182 237.795 196.835 237.851 195.489 237.896C194.917 237.915 194.342 237.918 193.769 237.911L193.523 237.907C193.288 237.903 193.042 237.907 192.795 237.896C192.931 239.099 193.07 240.302 193.209 241.504C193.46 241.478 193.712 241.458 193.956 241.434C194.676 241.363 195.395 241.288 196.116 241.232C197.483 241.128 198.85 241.066 200.222 241C201.623 240.933 203.025 240.888 204.426 240.825C205.106 240.794 205.785 240.754 206.462 240.696C206.967 240.598 207.481 240.551 207.996 240.554C208.02 239.355 208.047 238.156 208.075 236.956L208.074 236.955ZM208.185 232.316C208.163 232.349 208.137 232.38 208.108 232.408C207.554 232.937 206.872 232.896 206.138 232.952H206.093C205.374 233.01 204.654 233.065 203.935 233.116C202.496 233.217 201.054 233.287 199.613 233.349C198.138 233.413 196.654 233.458 195.178 233.429C194.233 233.41 193.243 233.413 192.278 233.324C192.425 234.647 192.574 235.972 192.726 237.3C192.997 237.25 193.27 237.212 193.528 237.173C194.179 237.074 194.831 236.974 195.487 236.901C196.796 236.756 198.106 236.621 199.417 236.497C200.539 236.392 201.66 236.284 202.783 236.188L203.456 236.132C204.796 236.023 206.151 235.844 207.496 235.817C207.613 235.817 207.728 235.843 207.832 235.895C207.936 235.946 208.026 236.021 208.094 236.113C208.123 234.848 208.154 233.583 208.186 232.316H208.185ZM208.278 228.56C207.936 228.6 207.568 228.577 207.251 228.587C206.453 228.612 205.655 228.636 204.856 228.658L200.067 228.795C198.437 228.842 196.801 228.876 195.169 228.854C194.452 228.844 193.731 228.843 193.014 228.805L192.775 228.791C192.481 228.772 192.115 228.769 191.763 228.734L192.181 232.474C193.141 232.34 194.13 232.29 195.082 232.211L195.285 232.194C196.689 232.071 198.098 231.988 199.504 231.896C200.946 231.802 202.387 231.687 203.826 231.57C204.545 231.511 205.266 231.453 205.984 231.39L206.073 231.381C206.713 231.207 207.397 231.269 207.993 231.554C208.079 231.609 208.149 231.683 208.197 231.771C208.224 230.701 208.252 229.631 208.279 228.56L208.278 228.56ZM208.39 224.195C205.473 224.308 202.556 224.394 199.637 224.432C197.994 224.453 196.353 224.438 194.711 224.405C193.999 224.391 193.28 224.358 192.569 224.305L192.302 224.285C191.964 224.257 191.608 224.237 191.254 224.204C191.4 225.49 191.546 226.776 191.689 228.062C192.038 228 192.401 227.971 192.707 227.933L192.776 227.924C193.534 227.823 194.3 227.764 195.062 227.699C196.546 227.573 198.037 227.492 199.525 227.422C201.048 227.351 202.572 227.291 204.096 227.226L205.62 227.16L206.382 227.128L207.471 227.085C207.65 227.078 207.837 227.054 208.015 227.063L208.066 227.056L208.13 227.049C208.178 227.014 208.231 226.984 208.287 226.961L208.321 226.949L208.39 224.195ZM190.779 220.058C190.915 221.216 191.049 222.374 191.181 223.531C191.597 223.485 192.018 223.46 192.415 223.426C193.216 223.355 194.021 223.295 194.824 223.26L196.43 223.189C197.5 223.141 198.57 223.095 199.641 223.057C202.574 222.954 205.505 222.831 208.433 222.691C208.453 221.905 208.475 221.12 208.497 220.334C208.418 220.414 208.323 220.476 208.218 220.518C208.113 220.559 208 220.579 207.887 220.575C204.811 220.567 201.733 220.584 198.658 220.535C197.118 220.511 195.578 220.475 194.043 220.399C193.291 220.361 192.535 220.285 191.788 220.186C191.466 220.142 191.117 220.112 190.779 220.058ZM190.287 215.934C190.434 217.12 190.576 218.306 190.713 219.492C191.095 219.426 191.49 219.392 191.846 219.344C192.612 219.243 193.382 219.163 194.153 219.121C195.654 219.039 197.155 218.997 198.658 218.966C201.732 218.903 204.81 218.904 207.887 218.88C208.009 218.874 208.13 218.896 208.242 218.944C208.354 218.991 208.453 219.063 208.531 219.153C208.553 218.413 208.575 217.672 208.598 216.932C208.305 216.901 208.007 216.861 207.734 216.84C206.896 216.783 206.058 216.732 205.22 216.686C203.47 216.589 201.72 216.504 199.969 216.432C198.218 216.36 196.466 216.29 194.715 216.223L193.949 216.197C192.723 216.17 191.5 216.082 190.284 215.934H190.287ZM189.737 211.469C189.887 212.67 190.036 213.871 190.183 215.073L190.228 215.445C191.71 215.199 193.21 215.06 194.714 215.028C196.465 214.956 198.217 214.921 199.967 214.924C201.718 214.927 203.468 214.965 205.219 215.039C206.093 215.073 206.968 215.114 207.842 215.16C208.082 215.172 208.364 215.165 208.654 215.17C208.66 214.981 208.665 214.792 208.673 214.603C208.699 213.838 208.726 213.073 208.753 212.308C208.127 212.565 207.47 212.746 206.798 212.846L206.731 212.86C205.747 213.069 204.75 213.214 203.747 213.295C201.776 213.439 199.796 213.42 197.829 213.238L197.485 213.21C195.738 213.098 194.004 212.851 192.299 212.469C191.484 212.282 190.699 211.989 189.965 211.599C189.888 211.558 189.811 211.514 189.733 211.467L189.737 211.469ZM206.344 197.195C206.348 197.18 206.357 197.167 206.37 197.157C206.382 197.147 206.397 197.14 206.413 197.138C206.429 197.136 206.445 197.139 206.459 197.145C206.474 197.152 206.486 197.163 206.495 197.176C206.691 197.629 206.851 198.095 206.974 198.572C207.148 199.063 207.31 199.558 207.502 200.044C207.898 201.056 208.377 202.036 208.936 202.973C209.493 203.904 207.933 204.568 207.523 203.549C207.09 202.499 206.761 201.412 206.541 200.302C206.43 199.76 206.355 199.211 206.316 198.66C206.252 198.173 206.261 197.679 206.344 197.195V197.195Z" fill="black"/>
<path fill-rule="evenodd" clip-rule="evenodd" d="M217.733 176.558C217.742 174.161 217.589 171.767 217.275 169.39C216.958 167.108 215.894 164.983 214.239 163.327C210.646 159.771 205.435 158.902 200.586 158.106L192.294 156.745C189.764 156.33 187.065 155.667 184.509 156.256C183.279 156.582 182.146 157.186 181.203 158.017C180.196 158.75 179.32 159.638 178.609 160.645C178.039 161.711 177.677 162.869 177.541 164.062C177.307 165.382 177.124 166.71 176.995 168.046C176.736 170.719 176.701 173.407 176.89 176.085C176.981 177.384 177.126 178.679 177.311 179.968C177.403 180.607 177.507 181.245 177.623 181.882C177.658 182.069 177.684 182.277 177.719 182.486C177.453 183.193 177.318 183.94 177.321 184.692C177.356 186.876 179.264 188.252 181.186 188.99C182.301 189.416 183.466 189.71 184.559 190.188C185.641 190.715 186.577 191.485 187.287 192.433C188.773 194.214 190.5 195.795 192.421 197.133C194.451 198.576 196.767 199.599 199.225 200.14C201.682 200.68 204.228 200.726 206.705 200.275C207.917 200.044 209.087 199.644 210.18 199.086C211.278 198.478 212.206 197.621 212.883 196.588C214.185 194.653 215.197 192.55 215.889 190.341C216.627 188.129 217.143 185.854 217.429 183.547C217.694 181.227 217.795 178.892 217.733 176.558V176.558Z" fill="white"/>
<path fill-rule="evenodd" clip-rule="evenodd" d="M191.274 148.448C194.705 147.992 199.441 149.475 201.149 152.466C209.308 150.606 219.597 150.545 226.321 156.736C233.338 164.079 224.524 173.76 218.681 175.942C219.107 177.941 218.444 190.747 213.75 196.46C210.024 201.3 201.35 203.534 197.335 197.753L197.304 197.706C196.874 197.038 197.244 197.059 197.686 197.556C201.617 200.898 206.961 200.958 211.08 197.429C218.798 190.979 218.002 175.175 214.33 166.032C203.871 164.921 192.674 167.986 185.45 175.6L185.938 178.443C186.022 178.927 186.115 179.411 186.188 179.897C186.228 180.046 186.233 180.2 186.203 180.351C186.174 180.501 186.11 180.643 186.017 180.767C185.284 181.599 184.037 180.349 183.016 179.851C182.718 179.809 182.416 179.796 182.116 179.815C177.202 180.426 178.173 189.634 183.569 188.02C184.022 187.747 184.412 187.83 184.588 188.226C185.874 189.365 186.722 191.397 188.859 193.353C189.562 194.061 190.328 194.71 191.147 195.29C191.645 195.777 193.148 196.274 192.671 197.108C191.77 199.004 186.457 193.047 185.518 191.399C182.57 192.523 179.312 192.141 176.264 191.866C160.17 191.058 162.318 174.658 175.508 164.304C178 162.544 180.71 161.093 183.575 159.986C183.964 159.834 183.795 159.218 183.4 159.371C181.508 160.106 179.679 160.983 177.928 161.993V161.388C177.898 160.382 177.964 159.374 178.125 158.379C178.202 157.743 178.365 157.119 178.61 156.524C178.9 154.936 183.486 149.485 191.274 148.448ZM181.9 181.929C182.149 181.701 182.612 181.973 182.834 181.966C183.382 182.045 183.904 182.247 184.356 182.557C184.58 182.677 184.792 182.818 184.989 182.977H184.993H184.989L185.004 182.987C185.241 183.149 186.104 184.062 185.558 183.816C185.518 183.765 185.476 183.716 185.433 183.668C185.428 183.675 185.422 183.682 185.415 183.687L185.446 183.731C185.91 184.406 185.109 183.695 184.985 183.506C184.979 183.51 184.973 183.514 184.966 183.517L185.127 183.705L185.182 183.772L185.216 183.804C185.752 184.314 185.769 184.772 185.142 184.017C185.166 184.048 185.183 184.084 185.189 184.123L185.226 184.168C185.715 184.778 185.317 184.561 185.074 184.301L185.054 184.278L185.058 184.285C185.284 184.621 184.838 184.385 184.756 184.205V184.197C184.697 184.148 184.644 184.094 184.598 184.034V184.034C184.162 183.614 183.632 183.297 183.05 183.104C182.977 183.09 182.899 183.08 182.822 183.072C182.511 183.005 182.195 182.959 181.877 182.934C181.833 182.924 181.795 182.899 181.77 182.863C181.289 182.847 181.437 182.657 181.637 182.621H181.597C181.289 182.592 181.077 182.485 181.39 182.419L181.429 182.411L181.416 182.389C181.149 182.361 181.323 182.109 181.472 182.17C181.41 181.973 181.692 182.071 181.731 182.042C181.751 182.016 181.779 181.997 181.811 181.986C181.897 181.925 181.855 181.93 181.9 181.929ZM183.536 178.733L183.474 178.768C183.426 178.796 183.373 178.816 183.318 178.827C183.392 178.858 183.466 178.89 183.538 178.926C183.538 178.883 183.538 178.84 183.538 178.798L183.536 178.733Z" fill="black"/>
<path fill-rule="evenodd" clip-rule="evenodd" d="M207.999 191.753C207.19 191.994 206.326 192 205.513 191.772C204.701 191.543 203.975 191.09 203.426 190.468C202.924 189.941 202.641 189.253 202.631 188.537C202.632 188.463 202.66 188.392 202.709 188.335C202.76 188.279 202.828 188.239 202.904 188.222C202.979 188.205 203.059 188.211 203.13 188.242C203.195 188.27 203.247 188.321 203.277 188.383C203.362 188.491 203.446 188.596 203.531 188.7C204.09 189.503 204.931 190.084 205.898 190.336C206.438 190.449 207.001 190.41 207.518 190.222C208.07 190.022 208.56 189.689 208.942 189.255C209.012 189.17 209.1 189.101 209.2 189.053C209.301 189.005 209.411 188.979 209.523 188.977C209.759 188.982 209.984 189.078 210.147 189.242C210.318 189.404 210.421 189.621 210.436 189.851C210.441 189.961 210.422 190.071 210.381 190.174C210.339 190.277 210.277 190.37 210.197 190.449C209.599 191.067 208.84 191.518 207.999 191.753V191.753ZM207.974 181.572C208.804 182.059 210.069 183.198 209.176 184.407C208.124 185.47 206.609 184.25 205.865 183.698C205.173 183.273 204.398 184.372 205.038 184.872C210.428 188.73 212.614 181.7 208.393 180.998C207.929 180.918 207.756 181.419 207.974 181.57V181.572ZM200.208 179.421C200.073 179.331 199.917 179.277 199.754 179.265C199.59 179.253 199.427 179.282 199.279 179.351C198.833 179.603 198.461 179.962 198.199 180.392C197.953 180.752 197.829 181.178 197.845 181.609C197.85 181.652 197.843 181.696 197.827 181.736C197.811 181.776 197.786 181.812 197.753 181.841C197.697 181.889 197.627 181.919 197.552 181.927C197.481 181.935 197.41 181.928 197.341 181.908C197.295 181.897 197.252 181.875 197.216 181.845C197.18 181.815 197.151 181.777 197.132 181.735C196.928 181.121 196.974 180.455 197.261 179.872C197.546 179.182 198.036 178.588 198.668 178.164C199.015 177.977 199.406 177.878 199.803 177.876C200.201 177.875 200.592 177.97 200.941 178.154C201.506 178.504 201.976 178.98 202.312 179.541C202.392 179.655 202.472 179.768 202.555 179.879C202.627 179.966 202.676 180.07 202.696 180.18C202.717 180.29 202.709 180.404 202.673 180.51C202.633 180.618 202.569 180.716 202.487 180.799C202.404 180.881 202.305 180.946 202.194 180.988C202.089 181.033 201.976 181.057 201.861 181.058C201.747 181.06 201.633 181.04 201.526 180.998C201.422 180.954 201.329 180.89 201.251 180.811C201.173 180.731 201.112 180.637 201.072 180.534C200.901 180.09 200.601 179.704 200.208 179.421ZM213.76 180.343C213.682 180.39 213.594 180.419 213.502 180.43C213.411 180.44 213.318 180.432 213.231 180.404C213.114 180.369 213.008 180.308 212.922 180.225C212.835 180.143 212.775 180.039 212.749 179.924C212.692 179.64 212.534 179.385 212.302 179.203C212.203 179.126 212.088 179.07 211.965 179.038C211.842 179.007 211.713 179.001 211.588 179.022C211.287 179.083 211.016 179.24 210.819 179.468C210.757 179.541 210.701 179.62 210.653 179.703C210.568 179.853 210.461 179.99 210.334 180.108C210.278 180.153 210.209 180.178 210.136 180.179C210.107 180.179 210.077 180.174 210.048 180.166C209.939 180.08 209.851 179.97 209.792 179.847C209.733 179.723 209.705 179.588 209.708 179.451C209.727 179.212 209.813 178.982 209.957 178.787C210.311 178.308 210.821 177.957 211.405 177.791C211.698 177.733 212.001 177.735 212.293 177.796C212.586 177.857 212.862 177.976 213.104 178.146C213.615 178.49 213.967 179.012 214.088 179.601C214.117 179.746 214.103 179.895 214.048 180.032C213.994 180.165 213.891 180.276 213.76 180.343V180.343ZM201.551 174.117C201.207 174.402 200.769 174.56 200.316 174.562C200.105 174.581 199.895 174.611 199.687 174.652C199.158 174.762 198.647 174.943 198.169 175.188C197.645 175.439 197.165 175.768 196.746 176.162C196.654 176.258 196.568 176.358 196.48 176.458C196.393 176.559 196.324 176.638 196.243 176.723C196.151 176.821 196.063 176.923 195.975 177.025C195.948 177.067 195.924 177.11 195.902 177.155C195.886 177.188 195.866 177.226 195.844 177.265C195.814 177.319 195.78 177.379 195.743 177.433C195.682 177.532 195.649 177.559 195.622 177.575C195.58 177.595 195.534 177.603 195.487 177.599C195.444 177.592 195.404 177.573 195.371 177.545C195.283 177.457 195.215 177.351 195.174 177.235C195.133 177.119 195.119 176.995 195.134 176.873C195.155 176.48 195.26 176.096 195.44 175.743C195.771 175.074 196.227 174.469 196.783 173.958C197.399 173.417 198.116 172.994 198.896 172.713C199.403 172.509 199.946 172.401 200.495 172.394C200.888 172.397 201.265 172.54 201.554 172.797C201.644 172.882 201.715 172.984 201.762 173.096C201.81 173.209 201.833 173.33 201.831 173.451C201.832 173.574 201.808 173.697 201.76 173.811C201.712 173.925 201.641 174.029 201.551 174.117ZM214.503 177.27C214.482 177.304 214.45 177.331 214.412 177.347C214.375 177.363 214.333 177.368 214.293 177.361C214.252 177.355 214.215 177.337 214.184 177.31C214.154 177.283 214.133 177.248 214.124 177.209C214.046 176.722 213.849 176.261 213.55 175.862C213.251 175.463 212.858 175.139 212.404 174.917C211.893 174.683 211.355 174.509 210.802 174.396C210.645 174.36 210.48 174.337 210.313 174.314C209.792 174.305 209.294 174.102 208.925 173.747C208.825 173.629 208.752 173.493 208.71 173.346C208.669 173.2 208.659 173.046 208.682 172.896C208.705 172.754 208.763 172.619 208.852 172.503C208.94 172.387 209.055 172.293 209.189 172.229C209.929 171.859 210.849 172.221 211.596 172.531L211.759 172.599C212.492 172.88 213.155 173.308 213.705 173.854C214.19 174.359 214.534 174.976 214.705 175.645C214.862 176.191 214.789 176.775 214.503 177.27H214.503Z" fill="black"/>
<path fill-rule="evenodd" clip-rule="evenodd" d="M208.095 185.711C206.872 185.178 204.677 185.64 203.88 185.827C202.027 186.257 200.162 187.185 199.587 188.64C198.938 190.28 200.233 190.796 200.423 190.711C201.706 190.798 203.234 190.019 204.578 189.818C205.712 189.723 206.818 189.428 207.843 188.949C208.589 189.346 210.275 189.56 211.636 189.908C212.795 190.203 213.297 190.844 214.371 190.708C215.659 190.545 215.132 187.926 213.697 186.866C212.126 185.705 209.47 185.234 208.095 185.711ZM210.515 196.908C209.445 197.161 209.373 194.894 209.254 194.093C209.16 193.468 208.632 191.854 207.293 191.924C205.955 191.993 205.451 193.345 205.519 194.186C205.563 194.731 206.083 197.493 204.425 197.843C203.287 197.847 202.152 197.756 201.031 197.572C199.722 197.288 198.021 196.282 197.572 198.258C197.409 198.967 203.175 201.081 205.733 201.273C207.07 201.533 208.453 201.469 209.758 201.086C211.063 200.704 212.25 200.015 213.213 199.081C213.897 198.26 214.465 197.354 214.899 196.387C215.077 195.455 214.666 194.855 213.472 195.183C212.629 195.616 211.203 196.744 210.516 196.906L210.515 196.908Z" fill="black"/>
<path fill-rule="evenodd" clip-rule="evenodd" d="M215.689 183.379C214.038 184.148 211.737 183.014 210.629 181.827C210.142 181.102 209.943 180.231 210.068 179.374C210.237 178.463 210.672 177.617 211.322 176.938C211.972 176.258 212.811 175.773 213.738 175.539C216.052 174.936 218.38 176.465 218.108 178.269C217.851 179.979 217.461 182.459 215.689 183.378M204.458 179.299C204.339 180.453 203.859 181.544 203.081 182.427C202.303 183.31 201.265 183.942 200.106 184.24C196.404 185.238 194.574 182.722 193.746 180.012C193.646 179.714 193.616 179.398 193.659 179.087C193.701 178.777 193.814 178.479 193.989 178.216C196.032 175.442 201.003 175.914 203.486 176.676C203.834 177.02 204.101 177.432 204.269 177.885C204.437 178.337 204.502 178.82 204.459 179.299M217.481 175.307V175.311L217.456 175.296L217.485 175.308M220.583 175.575C220.363 173.218 212.716 174.122 211.822 174.314C209.381 175.008 207.275 176.896 204.546 176.066C201.718 173.019 192.199 173.893 190.204 175.445C189.766 175.332 189.302 175.356 188.88 175.516C186.38 175.426 174.97 176.26 177.304 179.343C177.659 179.581 178.013 179.339 178.022 178.847C190.188 174.601 189.009 178.578 190.452 178.114C190.672 178.175 190.903 178.213 191.104 178.255C192.22 178.603 192.6 178.496 192.746 179.707C193.757 189.068 206.648 185.838 205.59 178.162C206.638 178.106 207.553 177.666 208.66 178.096C209.429 185.325 215.448 185.62 217.259 183.113C218.626 181.373 218.084 178.747 219.962 177.378C220.703 177.977 220.751 175.953 220.579 175.576" fill="black"/>
<g opacity="0.5">
<path d="M193.5 362.402C296.575 362.402 380.133 281.647 380.133 182.031C380.133 82.415 296.575 1.66016 193.5 1.66016C90.4252 1.66016 6.86663 82.415 6.86663 182.031C6.86663 281.647 90.4252 362.402 193.5 362.402Z" stroke="#989DB1" stroke-width="2" stroke-linecap="round" stroke-dasharray="7 14"/>
</g>
<path d="M109.4 138.049C130.055 138.049 146.8 121.866 146.8 101.904C146.8 81.9415 130.055 65.7588 109.4 65.7588C88.7446 65.7588 72 81.9415 72 101.904C72 121.866 88.7446 138.049 109.4 138.049Z" fill="white"/>
<path d="M109.4 136.986C129.448 136.986 145.7 121.279 145.7 101.904C145.7 82.5285 129.448 66.8218 109.4 66.8218C89.3521 66.8218 73.1 82.5285 73.1 101.904C73.1 121.279 89.3521 136.986 109.4 136.986Z" fill="white" stroke="#989DB1" stroke-width="3"/>
<path d="M97.8613 99.9448C96.722 99.9448 95.8398 100.375 95.2148 101.234C94.5898 102.087 94.2773 103.278 94.2773 104.808C94.2773 107.992 95.472 109.583 97.8613 109.583C98.8639 109.583 100.078 109.333 101.504 108.832V111.371C100.332 111.859 99.0234 112.103 97.5781 112.103C95.5013 112.103 93.9128 111.475 92.8125 110.218C91.7122 108.955 91.1621 107.145 91.1621 104.789C91.1621 103.304 91.4323 102.005 91.9727 100.892C92.513 99.7723 93.2878 98.9162 94.2969 98.3237C95.3125 97.7248 96.5007 97.4253 97.8613 97.4253C99.248 97.4253 100.641 97.7606 102.041 98.4312L101.064 100.892C100.531 100.638 99.9935 100.417 99.4531 100.228C98.9128 100.039 98.3822 99.9448 97.8613 99.9448ZM110.059 111.908H107.031V100.15H103.154V97.6304H113.936V100.15H110.059V111.908ZM122.197 99.9448C121.058 99.9448 120.176 100.375 119.551 101.234C118.926 102.087 118.613 103.278 118.613 104.808C118.613 107.992 119.808 109.583 122.197 109.583C123.2 109.583 124.414 109.333 125.84 108.832V111.371C124.668 111.859 123.359 112.103 121.914 112.103C119.837 112.103 118.249 111.475 117.148 110.218C116.048 108.955 115.498 107.145 115.498 104.789C115.498 103.304 115.768 102.005 116.309 100.892C116.849 99.7723 117.624 98.9162 118.633 98.3237C119.648 97.7248 120.837 97.4253 122.197 97.4253C123.584 97.4253 124.977 97.7606 126.377 98.4312L125.4 100.892C124.867 100.638 124.329 100.417 123.789 100.228C123.249 100.039 122.718 99.9448 122.197 99.9448Z" fill="#263238"/>
<path d="M256.933 312.083C273.134 312.083 286.267 299.391 286.267 283.734C286.267 268.077 273.134 255.385 256.933 255.385C240.733 255.385 227.6 268.077 227.6 283.734C227.6 299.391 240.733 312.083 256.933 312.083Z" fill="white"/>
<path d="M256.933 311.02C272.526 311.02 285.167 298.803 285.167 283.734C285.167 268.664 272.526 256.448 256.933 256.448C241.341 256.448 228.7 268.664 228.7 283.734C228.7 298.803 241.341 311.02 256.933 311.02Z" stroke="#989DB1" stroke-width="3"/>
<path d="M252.926 282.035V273.515H254.582V282.035H252.926ZM262.732 274.967H260.008V282.035H258.364V274.967H255.64V273.515H262.732V274.967ZM238.764 296.035V287.515H242.532C242.924 287.515 243.284 287.599 243.612 287.767C243.948 287.927 244.236 288.143 244.476 288.415C244.716 288.679 244.904 288.983 245.04 289.327C245.176 289.663 245.244 290.003 245.244 290.347C245.244 290.899 245.104 291.403 244.824 291.859C244.552 292.307 244.18 292.631 243.708 292.831L245.652 296.035H243.792L242.052 293.179H240.42V296.035H238.764ZM240.42 291.727H242.496C242.648 291.727 242.788 291.691 242.916 291.619C243.052 291.547 243.168 291.451 243.264 291.331C243.36 291.203 243.436 291.055 243.492 290.887C243.548 290.719 243.576 290.539 243.576 290.347C243.576 290.147 243.544 289.963 243.48 289.795C243.416 289.627 243.328 289.483 243.216 289.363C243.112 289.235 242.988 289.139 242.844 289.075C242.708 289.003 242.568 288.967 242.424 288.967H240.42V291.727ZM249.329 296.155C248.825 296.155 248.369 296.071 247.961 295.903C247.553 295.727 247.205 295.491 246.917 295.195C246.629 294.899 246.405 294.555 246.245 294.163C246.093 293.771 246.017 293.359 246.017 292.927C246.017 292.479 246.093 292.059 246.245 291.667C246.397 291.267 246.617 290.919 246.905 290.623C247.193 290.319 247.541 290.079 247.949 289.903C248.365 289.727 248.829 289.639 249.341 289.639C249.853 289.639 250.309 289.727 250.709 289.903C251.117 290.079 251.461 290.315 251.741 290.611C252.029 290.907 252.245 291.251 252.389 291.643C252.541 292.035 252.617 292.443 252.617 292.867C252.617 292.971 252.613 293.071 252.605 293.167C252.605 293.263 252.597 293.343 252.581 293.407H247.721C247.745 293.655 247.805 293.875 247.901 294.067C247.997 294.259 248.121 294.423 248.273 294.559C248.425 294.695 248.597 294.799 248.789 294.871C248.981 294.943 249.181 294.979 249.389 294.979C249.709 294.979 250.009 294.903 250.289 294.751C250.577 294.591 250.773 294.383 250.877 294.127L252.257 294.511C252.025 294.991 251.653 295.387 251.141 295.699C250.637 296.003 250.033 296.155 249.329 296.155ZM250.961 292.363C250.921 291.891 250.745 291.515 250.433 291.235C250.129 290.947 249.757 290.803 249.317 290.803C249.101 290.803 248.897 290.843 248.705 290.923C248.521 290.995 248.357 291.099 248.213 291.235C248.069 291.371 247.949 291.535 247.853 291.727C247.765 291.919 247.713 292.131 247.697 292.363H250.961ZM257.318 295.711C257.102 295.807 256.838 295.903 256.526 295.999C256.214 296.095 255.886 296.143 255.542 296.143C255.318 296.143 255.106 296.115 254.906 296.059C254.714 296.003 254.542 295.915 254.39 295.795C254.246 295.667 254.13 295.507 254.042 295.315C253.954 295.115 253.91 294.875 253.91 294.595V290.983H253.082V289.747H253.91V287.707H255.518V289.747H256.838V290.983H255.518V294.055C255.518 294.279 255.574 294.439 255.686 294.535C255.806 294.623 255.95 294.667 256.118 294.667C256.286 294.667 256.45 294.639 256.61 294.583C256.77 294.527 256.898 294.479 256.994 294.439L257.318 295.711ZM260.075 296.155C259.427 296.155 258.935 295.947 258.599 295.531C258.263 295.115 258.095 294.499 258.095 293.683V289.747H259.703V293.335C259.703 294.303 260.051 294.787 260.747 294.787C261.059 294.787 261.359 294.695 261.647 294.511C261.943 294.319 262.183 294.031 262.367 293.647V289.747H263.975V294.187C263.975 294.355 264.003 294.475 264.059 294.547C264.123 294.619 264.223 294.659 264.359 294.667V296.035C264.199 296.067 264.063 296.087 263.951 296.095C263.847 296.103 263.751 296.107 263.663 296.107C263.375 296.107 263.139 296.043 262.955 295.915C262.779 295.779 262.675 295.595 262.643 295.363L262.607 294.859C262.327 295.291 261.967 295.615 261.527 295.831C261.087 296.047 260.603 296.155 260.075 296.155ZM269.317 291.139C268.829 291.147 268.393 291.243 268.009 291.427C267.625 291.603 267.349 291.871 267.181 292.231V296.035H265.573V289.747H267.049V291.091C267.161 290.875 267.293 290.683 267.445 290.515C267.597 290.339 267.761 290.187 267.937 290.059C268.113 289.931 268.289 289.835 268.465 289.771C268.649 289.699 268.825 289.663 268.993 289.663C269.081 289.663 269.145 289.663 269.185 289.663C269.233 289.663 269.277 289.667 269.317 289.675V291.139ZM276.058 296.035H274.45V292.507C274.45 292.003 274.362 291.635 274.186 291.403C274.01 291.171 273.766 291.055 273.454 291.055C273.294 291.055 273.13 291.087 272.962 291.151C272.794 291.215 272.634 291.307 272.482 291.427C272.338 291.539 272.206 291.675 272.086 291.835C271.966 291.995 271.878 292.171 271.822 292.363V296.035H270.214V289.747H271.666V290.911C271.898 290.511 272.234 290.199 272.674 289.975C273.114 289.751 273.61 289.639 274.162 289.639C274.554 289.639 274.874 289.711 275.122 289.855C275.37 289.999 275.562 290.187 275.698 290.419C275.834 290.651 275.926 290.915 275.974 291.211C276.03 291.507 276.058 291.807 276.058 292.111V296.035Z" fill="#263238"/>
<path d="M61.8667 379.762C95.4824 379.762 122.733 353.426 122.733 320.938C122.733 288.45 95.4824 262.114 61.8667 262.114C28.2509 262.114 1 288.45 1 320.938C1 353.426 28.2509 379.762 61.8667 379.762Z" fill="white"/>
<path d="M61.8667 378.699C94.8749 378.699 121.633 352.839 121.633 320.938C121.633 289.037 94.8749 263.177 61.8667 263.177C28.8584 263.177 2.1 289.037 2.1 320.938C2.1 352.839 28.8584 378.699 61.8667 378.699Z" fill="white" stroke="#989DB1" stroke-width="3"/>
<path d="M18.776 329.575V312.535H26.312C27.096 312.535 27.816 312.703 28.472 313.039C29.144 313.359 29.72 313.791 30.2 314.335C30.68 314.863 31.056 315.471 31.328 316.159C31.6 316.831 31.736 317.511 31.736 318.199C31.736 319.303 31.456 320.311 30.896 321.223C30.352 322.119 29.608 322.767 28.664 323.167L32.552 329.575H28.832L25.352 323.863H22.088V329.575H18.776ZM22.088 320.959H26.24C26.544 320.959 26.824 320.887 27.08 320.743C27.352 320.599 27.584 320.407 27.776 320.167C27.968 319.911 28.12 319.615 28.232 319.279C28.344 318.943 28.4 318.583 28.4 318.199C28.4 317.799 28.336 317.431 28.208 317.095C28.08 316.759 27.904 316.471 27.68 316.231C27.472 315.975 27.224 315.783 26.936 315.655C26.664 315.511 26.384 315.439 26.096 315.439H22.088V320.959ZM39.9054 329.815C38.8974 329.815 37.9854 329.647 37.1694 329.311C36.3534 328.959 35.6574 328.487 35.0814 327.895C34.5054 327.303 34.0574 326.615 33.7374 325.831C33.4334 325.047 33.2814 324.223 33.2814 323.359C33.2814 322.463 33.4334 321.623 33.7374 320.839C34.0414 320.039 34.4814 319.343 35.0574 318.751C35.6334 318.143 36.3294 317.663 37.1454 317.311C37.9774 316.959 38.9054 316.783 39.9294 316.783C40.9534 316.783 41.8654 316.959 42.6654 317.311C43.4814 317.663 44.1694 318.135 44.7294 318.727C45.3054 319.319 45.7374 320.007 46.0254 320.791C46.3294 321.575 46.4814 322.391 46.4814 323.239C46.4814 323.447 46.4734 323.647 46.4574 323.839C46.4574 324.031 46.4414 324.191 46.4094 324.319H36.6894C36.7374 324.815 36.8574 325.255 37.0494 325.639C37.2414 326.023 37.4894 326.351 37.7934 326.623C38.0974 326.895 38.4414 327.103 38.8254 327.247C39.2094 327.391 39.6094 327.463 40.0254 327.463C40.6654 327.463 41.2654 327.311 41.8254 327.007C42.4014 326.687 42.7934 326.271 43.0014 325.759L45.7614 326.527C45.2974 327.487 44.5534 328.279 43.5294 328.903C42.5214 329.511 41.3134 329.815 39.9054 329.815ZM43.1694 322.231C43.0894 321.287 42.7374 320.535 42.1134 319.975C41.5054 319.399 40.7614 319.111 39.8814 319.111C39.4494 319.111 39.0414 319.191 38.6574 319.351C38.2894 319.495 37.9614 319.703 37.6734 319.975C37.3854 320.247 37.1454 320.575 36.9534 320.959C36.7774 321.343 36.6734 321.767 36.6414 322.231H43.1694ZM53.3606 329.647C52.5126 329.647 51.7446 329.479 51.0566 329.143C50.3686 328.807 49.7686 328.351 49.2566 327.775C48.7606 327.183 48.3766 326.503 48.1046 325.735C47.8326 324.967 47.6966 324.151 47.6966 323.287C47.6966 322.375 47.8406 321.527 48.1286 320.743C48.4166 319.959 48.8166 319.271 49.3286 318.679C49.8406 318.087 50.4566 317.623 51.1766 317.287C51.8966 316.951 52.6886 316.783 53.5526 316.783C54.5286 316.783 55.3846 317.007 56.1206 317.455C56.8566 317.887 57.4646 318.471 57.9446 319.207V316.999H60.7526V328.975C60.7526 329.903 60.5766 330.735 60.2246 331.471C59.8726 332.207 59.3846 332.831 58.7606 333.343C58.1526 333.855 57.4166 334.247 56.5526 334.519C55.7046 334.791 54.7766 334.927 53.7686 334.927C52.3926 334.927 51.2326 334.695 50.2886 334.231C49.3606 333.783 48.5606 333.143 47.8886 332.311L49.6406 330.607C50.1206 331.199 50.7206 331.663 51.4406 331.999C52.1766 332.335 52.9526 332.503 53.7686 332.503C54.2646 332.503 54.7366 332.431 55.1846 332.287C55.6486 332.159 56.0566 331.951 56.4086 331.663C56.7606 331.375 57.0326 331.007 57.2246 330.559C57.4326 330.111 57.5366 329.583 57.5366 328.975V327.391C57.1206 328.111 56.5366 328.671 55.7846 329.071C55.0326 329.455 54.2246 329.647 53.3606 329.647ZM54.4406 327.079C54.7926 327.079 55.1286 327.023 55.4486 326.911C55.7686 326.799 56.0646 326.647 56.3366 326.455C56.6086 326.263 56.8486 326.039 57.0566 325.783C57.2646 325.527 57.4246 325.255 57.5366 324.967V321.967C57.2486 321.231 56.7926 320.639 56.1686 320.191C55.5606 319.743 54.9206 319.519 54.2486 319.519C53.7526 319.519 53.3046 319.631 52.9046 319.855C52.5046 320.063 52.1606 320.351 51.8726 320.719C51.5846 321.071 51.3606 321.479 51.2006 321.943C51.0566 322.407 50.9846 322.887 50.9846 323.383C50.9846 323.895 51.0726 324.375 51.2486 324.823C51.4246 325.271 51.6646 325.663 51.9686 325.999C52.2886 326.335 52.6566 326.599 53.0726 326.791C53.4886 326.983 53.9446 327.079 54.4406 327.079ZM63.6515 329.575V316.999H66.8675V329.575H63.6515ZM63.6515 315.247V312.055H66.8675V315.247H63.6515ZM89.3047 329.575H86.0887V322.519C86.0887 321.511 85.9127 320.775 85.5607 320.311C85.2247 319.847 84.7527 319.615 84.1447 319.615C83.5047 319.615 82.9047 319.863 82.3447 320.359C81.7847 320.839 81.3847 321.471 81.1447 322.255V329.575H77.9287V322.519C77.9287 321.511 77.7527 320.775 77.4007 320.311C77.0647 319.847 76.5927 319.615 75.9847 319.615C75.3607 319.615 74.7607 319.855 74.1847 320.335C73.6247 320.815 73.2247 321.447 72.9847 322.231V329.575H69.7687V316.999H72.6727V319.327C73.1367 318.511 73.7687 317.887 74.5687 317.455C75.3847 317.007 76.3127 316.783 77.3527 316.783C78.4087 316.783 79.2247 317.039 79.8007 317.551C80.3767 318.063 80.7447 318.695 80.9047 319.447C81.4167 318.583 82.0647 317.927 82.8487 317.479C83.6327 317.015 84.5287 316.783 85.5367 316.783C86.3047 316.783 86.9367 316.927 87.4327 317.215C87.9287 317.503 88.3127 317.879 88.5847 318.343C88.8567 318.807 89.0407 319.335 89.1367 319.927C89.2487 320.519 89.3047 321.119 89.3047 321.727V329.575ZM97.9366 329.815C96.9286 329.815 96.0166 329.647 95.2006 329.311C94.3846 328.959 93.6886 328.487 93.1126 327.895C92.5366 327.303 92.0886 326.615 91.7686 325.831C91.4646 325.047 91.3126 324.223 91.3126 323.359C91.3126 322.463 91.4646 321.623 91.7686 320.839C92.0726 320.039 92.5126 319.343 93.0886 318.751C93.6646 318.143 94.3606 317.663 95.1766 317.311C96.0086 316.959 96.9366 316.783 97.9606 316.783C98.9846 316.783 99.8966 316.959 100.697 317.311C101.513 317.663 102.201 318.135 102.761 318.727C103.337 319.319 103.769 320.007 104.057 320.791C104.361 321.575 104.513 322.391 104.513 323.239C104.513 323.447 104.505 323.647 104.489 323.839C104.489 324.031 104.473 324.191 104.441 324.319H94.7206C94.7686 324.815 94.8886 325.255 95.0806 325.639C95.2726 326.023 95.5206 326.351 95.8246 326.623C96.1286 326.895 96.4726 327.103 96.8566 327.247C97.2406 327.391 97.6406 327.463 98.0566 327.463C98.6966 327.463 99.2966 327.311 99.8566 327.007C100.433 326.687 100.825 326.271 101.033 325.759L103.793 326.527C103.329 327.487 102.585 328.279 101.561 328.903C100.553 329.511 99.3446 329.815 97.9366 329.815ZM101.201 322.231C101.121 321.287 100.769 320.535 100.145 319.975C99.5366 319.399 98.7926 319.111 97.9126 319.111C97.4806 319.111 97.0726 319.191 96.6886 319.351C96.3206 319.495 95.9926 319.703 95.7046 319.975C95.4166 320.247 95.1766 320.575 94.9846 320.959C94.8086 321.343 94.7046 321.767 94.6726 322.231H101.201Z" fill="#263238"/>
<path d="M318.867 74.1601C334.257 74.1601 346.733 62.1024 346.733 47.2285C346.733 32.3546 334.257 20.2969 318.867 20.2969C303.476 20.2969 291 32.3546 291 47.2285C291 62.1024 303.476 74.1601 318.867 74.1601Z" fill="white"/>
<path d="M318.867 73.0969C333.649 73.0969 345.633 61.5152 345.633 47.2284C345.633 32.9416 333.649 21.3599 318.867 21.3599C304.084 21.3599 292.1 32.9416 292.1 47.2284C292.1 61.5152 304.084 73.0969 318.867 73.0969Z" stroke="#989DB1" stroke-width="3"/>
<path d="M311.383 54.5767H309.566V47.522H307.24V46.0103H313.709V47.522H311.383V54.5767ZM322.135 50.2114C322.135 51.6216 321.732 52.7017 320.928 53.4517C320.127 54.2017 318.969 54.5767 317.453 54.5767H315.027V46.0103H317.717C319.115 46.0103 320.201 46.3794 320.975 47.1177C321.748 47.856 322.135 48.8872 322.135 50.2114ZM320.248 50.2583C320.248 48.4185 319.436 47.4985 317.811 47.4985H316.844V53.0767H317.623C319.373 53.0767 320.248 52.1372 320.248 50.2583ZM328.967 52.1978C328.967 52.9712 328.688 53.5806 328.129 54.0259C327.574 54.4712 326.801 54.6938 325.809 54.6938C324.895 54.6938 324.086 54.522 323.383 54.1782V52.4907C323.961 52.7485 324.449 52.9302 324.848 53.0356C325.25 53.1411 325.617 53.1938 325.949 53.1938C326.348 53.1938 326.652 53.1177 326.863 52.9653C327.078 52.813 327.186 52.5864 327.186 52.2856C327.186 52.1177 327.139 51.9692 327.045 51.8403C326.951 51.7075 326.812 51.5806 326.629 51.4595C326.449 51.3384 326.08 51.145 325.521 50.8794C324.998 50.6333 324.605 50.397 324.344 50.1704C324.082 49.9438 323.873 49.6802 323.717 49.3794C323.561 49.0786 323.482 48.7271 323.482 48.3247C323.482 47.5669 323.738 46.9712 324.25 46.5376C324.766 46.104 325.477 45.8872 326.383 45.8872C326.828 45.8872 327.252 45.9399 327.654 46.0454C328.061 46.1509 328.484 46.2993 328.926 46.4907L328.34 47.9028C327.883 47.7153 327.504 47.5845 327.203 47.5103C326.906 47.436 326.613 47.3989 326.324 47.3989C325.98 47.3989 325.717 47.479 325.533 47.6392C325.35 47.7993 325.258 48.0083 325.258 48.2661C325.258 48.4263 325.295 48.5669 325.369 48.688C325.443 48.8052 325.561 48.9204 325.721 49.0337C325.885 49.1431 326.27 49.3423 326.875 49.6313C327.676 50.0142 328.225 50.3989 328.521 50.7856C328.818 51.1685 328.967 51.6392 328.967 52.1978Z" fill="#263238"/>
<rect x="258.006" y="125" width="239.994" height="26" fill="#405CD2"/>
<path d="M270.89 142.42L266.275 138.803H262.712C261.445 138.803 260.229 138.575 259.333 138.168C258.437 137.762 257.934 137.21 257.934 136.635V127.241C257.934 126.666 258.437 126.115 259.333 125.708C260.229 125.302 261.445 125.073 262.712 125.073H464.988C466.255 125.073 467.47 125.302 468.366 125.708C469.262 126.115 469.766 126.666 469.766 127.241V136.635C469.766 137.21 469.262 137.762 468.366 138.168C467.47 138.575 466.255 138.803 464.988 138.803H278.262L273.643 142.42C273.504 142.53 273.303 142.622 273.061 142.686C272.819 142.749 272.544 142.782 272.264 142.781C271.985 142.782 271.711 142.749 271.469 142.685C271.228 142.622 271.028 142.53 270.89 142.42Z" fill="#405CD2"/>
<path d="M276.447 144H274.335V139.687H270.377V144H268.258V134.006H270.377V137.923H274.335V134.006H276.447V144ZM278.724 134.382C278.724 133.703 279.102 133.363 279.858 133.363C280.615 133.363 280.993 133.703 280.993 134.382C280.993 134.705 280.897 134.958 280.706 135.141C280.519 135.318 280.237 135.407 279.858 135.407C279.102 135.407 278.724 135.065 278.724 134.382ZM280.897 144H278.812V136.357H280.897V144ZM284.842 140.685H283.174L282.825 134.006H285.19L284.842 140.685ZM282.798 143.022C282.798 142.64 282.9 142.35 283.105 142.154C283.311 141.958 283.609 141.86 284.001 141.86C284.379 141.86 284.671 141.961 284.876 142.161C285.086 142.362 285.19 142.649 285.19 143.022C285.19 143.382 285.086 143.667 284.876 143.877C284.666 144.082 284.375 144.185 284.001 144.185C283.618 144.185 283.322 144.084 283.112 143.884C282.903 143.679 282.798 143.392 282.798 143.022ZM290.898 144V134.006H293.018V144H290.898ZM297.092 134.006L296.812 137.615H295.465L295.185 134.006H297.092ZM305.944 144H303.859V139.536C303.859 138.985 303.766 138.572 303.579 138.299C303.397 138.021 303.107 137.882 302.711 137.882C302.178 137.882 301.79 138.078 301.549 138.47C301.307 138.862 301.187 139.507 301.187 140.404V144H299.102V136.357H300.694L300.975 137.335H301.091C301.296 136.984 301.592 136.711 301.979 136.515C302.367 136.314 302.811 136.214 303.312 136.214C304.456 136.214 305.231 136.588 305.637 137.335H305.821C306.026 136.979 306.327 136.704 306.724 136.508C307.125 136.312 307.576 136.214 308.077 136.214C308.943 136.214 309.597 136.437 310.039 136.884C310.486 137.326 310.709 138.037 310.709 139.017V144H308.617V139.536C308.617 138.985 308.524 138.572 308.337 138.299C308.155 138.021 307.865 137.882 307.469 137.882C306.958 137.882 306.576 138.064 306.32 138.429C306.07 138.793 305.944 139.372 305.944 140.165V144ZM320.901 135.626C320.104 135.626 319.486 135.927 319.049 136.528C318.611 137.125 318.393 137.959 318.393 139.03C318.393 141.259 319.229 142.373 320.901 142.373C321.603 142.373 322.453 142.198 323.451 141.847V143.624C322.631 143.966 321.715 144.137 320.703 144.137C319.249 144.137 318.137 143.697 317.367 142.817C316.597 141.933 316.212 140.666 316.212 139.017C316.212 137.978 316.401 137.068 316.779 136.289C317.158 135.505 317.7 134.906 318.406 134.491C319.117 134.072 319.949 133.862 320.901 133.862C321.872 133.862 322.847 134.097 323.827 134.566L323.144 136.289C322.77 136.111 322.394 135.956 322.016 135.824C321.637 135.692 321.266 135.626 320.901 135.626ZM332.475 144H330.39V139.536C330.39 138.433 329.979 137.882 329.159 137.882C328.576 137.882 328.154 138.08 327.895 138.477C327.635 138.873 327.505 139.516 327.505 140.404V144H325.42V133.363H327.505V135.53C327.505 135.699 327.489 136.095 327.457 136.72L327.409 137.335H327.519C327.983 136.588 328.722 136.214 329.733 136.214C330.631 136.214 331.312 136.455 331.777 136.938C332.242 137.422 332.475 138.114 332.475 139.017V144ZM339.475 144L339.071 142.961H339.017C338.666 143.403 338.303 143.711 337.93 143.884C337.561 144.052 337.077 144.137 336.48 144.137C335.747 144.137 335.168 143.927 334.744 143.508C334.325 143.089 334.115 142.492 334.115 141.717C334.115 140.906 334.398 140.309 334.963 139.926C335.533 139.538 336.389 139.324 337.533 139.283L338.859 139.242V138.907C338.859 138.132 338.463 137.745 337.67 137.745C337.059 137.745 336.341 137.93 335.517 138.299L334.826 136.891C335.706 136.43 336.681 136.2 337.752 136.2C338.777 136.2 339.563 136.424 340.11 136.87C340.657 137.317 340.931 137.996 340.931 138.907V144H339.475ZM338.859 140.459L338.053 140.486C337.447 140.505 336.995 140.614 336.699 140.814C336.403 141.015 336.255 141.32 336.255 141.73C336.255 142.318 336.592 142.612 337.267 142.612C337.75 142.612 338.135 142.473 338.422 142.195C338.714 141.917 338.859 141.548 338.859 141.088V140.459ZM346.304 142.476C346.668 142.476 347.106 142.396 347.616 142.236V143.788C347.097 144.021 346.459 144.137 345.702 144.137C344.868 144.137 344.26 143.927 343.877 143.508C343.499 143.084 343.31 142.451 343.31 141.607V137.923H342.312V137.041L343.46 136.344L344.062 134.73H345.395V136.357H347.534V137.923H345.395V141.607C345.395 141.904 345.477 142.122 345.641 142.264C345.809 142.405 346.03 142.476 346.304 142.476ZM354.582 144L354.302 143.022H354.192C353.969 143.378 353.652 143.654 353.242 143.85C352.832 144.041 352.365 144.137 351.841 144.137C350.943 144.137 350.266 143.897 349.811 143.419C349.355 142.936 349.127 142.243 349.127 141.341V136.357H351.212V140.821C351.212 141.373 351.31 141.787 351.506 142.065C351.702 142.339 352.014 142.476 352.442 142.476C353.026 142.476 353.447 142.282 353.707 141.895C353.967 141.503 354.097 140.855 354.097 139.953V136.357H356.182V144H354.582ZM362.635 136.214C362.917 136.214 363.152 136.234 363.339 136.275L363.182 138.23C363.013 138.185 362.808 138.162 362.566 138.162C361.901 138.162 361.382 138.333 361.008 138.675C360.639 139.017 360.454 139.495 360.454 140.11V144H358.369V136.357H359.948L360.256 137.643H360.358C360.595 137.214 360.914 136.87 361.315 136.61C361.721 136.346 362.161 136.214 362.635 136.214ZM364.433 143.022C364.433 142.64 364.535 142.35 364.74 142.154C364.945 141.958 365.244 141.86 365.636 141.86C366.014 141.86 366.306 141.961 366.511 142.161C366.72 142.362 366.825 142.649 366.825 143.022C366.825 143.382 366.72 143.667 366.511 143.877C366.301 144.082 366.009 144.185 365.636 144.185C365.253 144.185 364.957 144.084 364.747 143.884C364.537 143.679 364.433 143.392 364.433 143.022ZM381.386 144H378.692L374.345 136.439H374.283C374.37 137.775 374.413 138.727 374.413 139.297V144H372.52V134.006H375.192L379.533 141.491H379.581C379.513 140.192 379.479 139.274 379.479 138.736V134.006H381.386V144ZM383.655 134.382C383.655 133.703 384.034 133.363 384.79 133.363C385.547 133.363 385.925 133.703 385.925 134.382C385.925 134.705 385.829 134.958 385.638 135.141C385.451 135.318 385.168 135.407 384.79 135.407C384.034 135.407 383.655 135.065 383.655 134.382ZM385.829 144H383.744V136.357H385.829V144ZM391.127 144.137C388.748 144.137 387.559 142.831 387.559 140.22C387.559 138.921 387.882 137.93 388.529 137.246C389.176 136.558 390.104 136.214 391.312 136.214C392.196 136.214 392.989 136.387 393.69 136.733L393.075 138.347C392.747 138.215 392.442 138.107 392.159 138.025C391.877 137.939 391.594 137.896 391.312 137.896C390.227 137.896 389.685 138.666 389.685 140.206C389.685 141.701 390.227 142.448 391.312 142.448C391.713 142.448 392.084 142.396 392.426 142.291C392.768 142.182 393.109 142.013 393.451 141.785V143.569C393.114 143.784 392.772 143.932 392.426 144.014C392.084 144.096 391.651 144.137 391.127 144.137ZM398.394 137.697C397.951 137.697 397.605 137.839 397.354 138.121C397.104 138.399 396.96 138.796 396.924 139.311H399.85C399.84 138.796 399.706 138.399 399.446 138.121C399.187 137.839 398.836 137.697 398.394 137.697ZM398.688 144.137C397.457 144.137 396.495 143.797 395.803 143.118C395.11 142.439 394.764 141.478 394.764 140.233C394.764 138.953 395.083 137.964 395.721 137.267C396.363 136.565 397.25 136.214 398.38 136.214C399.46 136.214 400.301 136.521 400.902 137.137C401.504 137.752 401.805 138.602 401.805 139.687V140.698H396.876C396.899 141.291 397.074 141.753 397.402 142.086C397.73 142.419 398.191 142.585 398.783 142.585C399.243 142.585 399.679 142.537 400.089 142.441C400.499 142.346 400.927 142.193 401.374 141.983V143.597C401.009 143.779 400.62 143.913 400.205 144C399.79 144.091 399.285 144.137 398.688 144.137ZM410.356 142.476C410.721 142.476 411.159 142.396 411.669 142.236V143.788C411.149 144.021 410.511 144.137 409.755 144.137C408.921 144.137 408.312 143.927 407.93 143.508C407.551 143.084 407.362 142.451 407.362 141.607V137.923H406.364V137.041L407.513 136.344L408.114 134.73H409.447V136.357H411.587V137.923H409.447V141.607C409.447 141.904 409.529 142.122 409.693 142.264C409.862 142.405 410.083 142.476 410.356 142.476ZM414.882 140.165C414.882 140.922 415.005 141.493 415.251 141.881C415.502 142.268 415.907 142.462 416.468 142.462C417.024 142.462 417.423 142.271 417.664 141.888C417.91 141.5 418.033 140.926 418.033 140.165C418.033 139.409 417.91 138.841 417.664 138.463C417.418 138.085 417.015 137.896 416.454 137.896C415.898 137.896 415.497 138.085 415.251 138.463C415.005 138.837 414.882 139.404 414.882 140.165ZM420.166 140.165C420.166 141.409 419.838 142.382 419.182 143.084C418.525 143.786 417.612 144.137 416.44 144.137C415.707 144.137 415.06 143.977 414.499 143.658C413.938 143.335 413.508 142.872 413.207 142.271C412.906 141.669 412.756 140.967 412.756 140.165C412.756 138.916 413.082 137.946 413.733 137.253C414.385 136.56 415.301 136.214 416.481 136.214C417.215 136.214 417.862 136.373 418.423 136.692C418.983 137.011 419.414 137.469 419.715 138.066C420.016 138.663 420.166 139.363 420.166 140.165ZM432.368 144H430.283V139.536C430.283 138.985 430.19 138.572 430.003 138.299C429.821 138.021 429.531 137.882 429.135 137.882C428.602 137.882 428.214 138.078 427.973 138.47C427.731 138.862 427.61 139.507 427.61 140.404V144H425.525V136.357H427.118L427.398 137.335H427.515C427.72 136.984 428.016 136.711 428.403 136.515C428.791 136.314 429.235 136.214 429.736 136.214C430.88 136.214 431.655 136.588 432.061 137.335H432.245C432.45 136.979 432.751 136.704 433.147 136.508C433.549 136.312 434 136.214 434.501 136.214C435.367 136.214 436.021 136.437 436.463 136.884C436.91 137.326 437.133 138.037 437.133 139.017V144H435.041V139.536C435.041 138.985 434.948 138.572 434.761 138.299C434.578 138.021 434.289 137.882 433.893 137.882C433.382 137.882 432.999 138.064 432.744 138.429C432.493 138.793 432.368 139.372 432.368 140.165V144ZM442.444 137.697C442.002 137.697 441.656 137.839 441.405 138.121C441.155 138.399 441.011 138.796 440.975 139.311H443.9C443.891 138.796 443.757 138.399 443.497 138.121C443.237 137.839 442.886 137.697 442.444 137.697ZM442.738 144.137C441.508 144.137 440.546 143.797 439.854 143.118C439.161 142.439 438.814 141.478 438.814 140.233C438.814 138.953 439.133 137.964 439.771 137.267C440.414 136.565 441.3 136.214 442.431 136.214C443.511 136.214 444.352 136.521 444.953 137.137C445.555 137.752 445.855 138.602 445.855 139.687V140.698H440.927C440.95 141.291 441.125 141.753 441.453 142.086C441.781 142.419 442.242 142.585 442.834 142.585C443.294 142.585 443.729 142.537 444.14 142.441C444.55 142.346 444.978 142.193 445.425 141.983V143.597C445.06 143.779 444.671 143.913 444.256 144C443.841 144.091 443.335 144.137 442.738 144.137ZM450.716 137.697C450.274 137.697 449.927 137.839 449.677 138.121C449.426 138.399 449.283 138.796 449.246 139.311H452.172C452.163 138.796 452.028 138.399 451.769 138.121C451.509 137.839 451.158 137.697 450.716 137.697ZM451.01 144.137C449.779 144.137 448.818 143.797 448.125 143.118C447.432 142.439 447.086 141.478 447.086 140.233C447.086 138.953 447.405 137.964 448.043 137.267C448.686 136.565 449.572 136.214 450.702 136.214C451.782 136.214 452.623 136.521 453.225 137.137C453.826 137.752 454.127 138.602 454.127 139.687V140.698H449.198C449.221 141.291 449.396 141.753 449.725 142.086C450.053 142.419 450.513 142.585 451.105 142.585C451.566 142.585 452.001 142.537 452.411 142.441C452.821 142.346 453.25 142.193 453.696 141.983V143.597C453.332 143.779 452.942 143.913 452.527 144C452.113 144.091 451.607 144.137 451.01 144.137ZM459.042 142.476C459.407 142.476 459.844 142.396 460.354 142.236V143.788C459.835 144.021 459.197 144.137 458.44 144.137C457.606 144.137 456.998 143.927 456.615 143.508C456.237 143.084 456.048 142.451 456.048 141.607V137.923H455.05V137.041L456.198 136.344L456.8 134.73H458.133V136.357H460.272V137.923H458.133V141.607C458.133 141.904 458.215 142.122 458.379 142.264C458.548 142.405 458.769 142.476 459.042 142.476ZM464.449 136.357H466.732L468.175 140.657C468.298 141.031 468.382 141.473 468.428 141.983H468.469C468.519 141.514 468.617 141.072 468.763 140.657L470.178 136.357H472.413L469.18 144.978C468.883 145.775 468.46 146.372 467.908 146.769C467.361 147.165 466.721 147.363 465.987 147.363C465.627 147.363 465.274 147.325 464.928 147.247V145.593C465.178 145.652 465.452 145.682 465.748 145.682C466.117 145.682 466.438 145.568 466.712 145.34C466.99 145.117 467.206 144.777 467.361 144.321L467.484 143.945L464.449 136.357ZM475.175 140.165C475.175 140.922 475.298 141.493 475.544 141.881C475.795 142.268 476.2 142.462 476.761 142.462C477.317 142.462 477.715 142.271 477.957 141.888C478.203 141.5 478.326 140.926 478.326 140.165C478.326 139.409 478.203 138.841 477.957 138.463C477.711 138.085 477.308 137.896 476.747 137.896C476.191 137.896 475.79 138.085 475.544 138.463C475.298 138.837 475.175 139.404 475.175 140.165ZM480.459 140.165C480.459 141.409 480.131 142.382 479.475 143.084C478.818 143.786 477.905 144.137 476.733 144.137C476 144.137 475.353 143.977 474.792 143.658C474.231 143.335 473.801 142.872 473.5 142.271C473.199 141.669 473.049 140.967 473.049 140.165C473.049 138.916 473.375 137.946 474.026 137.253C474.678 136.56 475.594 136.214 476.774 136.214C477.508 136.214 478.155 136.373 478.716 136.692C479.276 137.011 479.707 137.469 480.008 138.066C480.309 138.663 480.459 139.363 480.459 140.165ZM487.596 144L487.315 143.022H487.206C486.983 143.378 486.666 143.654 486.256 143.85C485.846 144.041 485.379 144.137 484.854 144.137C483.957 144.137 483.28 143.897 482.824 143.419C482.368 142.936 482.141 142.243 482.141 141.341V136.357H484.226V140.821C484.226 141.373 484.324 141.787 484.52 142.065C484.715 142.339 485.028 142.476 485.456 142.476C486.039 142.476 486.461 142.282 486.721 141.895C486.98 141.503 487.11 140.855 487.11 139.953V136.357H489.195V144H487.596Z" fill="white"/>
</svg>
