<svg width="105" height="81" viewBox="0 0 105 81" fill="none" xmlns="http://www.w3.org/2000/svg">
<path d="M0 52.2125C0 70.5575 11.8868 81 25.1887 81C37.3585 81 47.5472 70.8397 47.5472 58.7038C47.5472 46.5679 39.0566 38.3833 28.3019 38.3833C26.0377 38.3833 23.4906 38.6655 22.6415 39.23C25.1887 29.0697 35.6604 17.216 44.717 12.4181L29.1509 0C11.6038 12.1359 0 31.0453 0 52.2125ZM57.7359 52.2125C57.7359 70.5575 69.3396 81 82.6415 81C95.0944 81 105 70.8397 105 58.7038C105 46.5679 96.5094 38.3833 86.0377 38.3833C83.7736 38.3833 81.2264 38.6655 80.3774 39.23C82.6415 29.0697 93.3962 17.216 102.453 12.4181L86.6038 0C69.0566 12.1359 57.7359 31.0453 57.7359 52.2125Z" fill="#405CD2" fill-opacity="0.2"/>
</svg>
