<svg width="553" height="396" viewBox="0 0 553 396" fill="none" xmlns="http://www.w3.org/2000/svg">
<line x1="71" y1="11.5" x2="553" y2="11.5" stroke="#85868B"/>
<line x1="71" y1="74.5" x2="553" y2="74.5" stroke="#85868B"/>
<line x1="71" y1="137.5" x2="553" y2="137.5" stroke="#85868B"/>
<line x1="71" y1="200.5" x2="553" y2="200.5" stroke="#85868B"/>
<line x1="71" y1="263.5" x2="553" y2="263.5" stroke="#85868B"/>
<line x1="71" y1="326.5" x2="553" y2="326.5" stroke="#85868B"/>
<path d="M0.624 16H6.264V14.944H2.532C4.728 13.252 6.228 11.848 6.228 10.288C6.228 8.692 4.872 7.876 3.432 7.876C2.316 7.876 1.224 8.32 0.564 9.148L1.272 9.928C1.764 9.34 2.496 8.944 3.444 8.944C4.224 8.944 5.004 9.352 5.004 10.288C5.004 11.548 3.624 12.748 0.624 15.052V16ZM8.27784 17.56C8.88984 17.128 9.33384 16.408 9.33384 15.628C9.33384 14.992 8.93784 14.632 8.49384 14.632C8.08584 14.632 7.76184 14.956 7.76184 15.364C7.76184 15.76 8.03784 16.048 8.40984 16.048C8.46984 16.048 8.56584 16.024 8.58984 16.024C8.52984 16.42 8.15784 16.9 7.77384 17.14L8.27784 17.56ZM10.6812 14.884C11.3052 15.664 12.2172 16.144 13.5852 16.144C15.2772 16.144 16.5252 15.112 16.5252 13.468C16.5252 11.824 15.3132 10.9 13.9692 10.9C13.1892 10.9 12.5172 11.224 12.1332 11.608V9.052H15.9972V7.996H10.9332V12.388L11.7972 12.664C12.3252 12.16 12.9012 11.944 13.5972 11.944C14.6292 11.944 15.3132 12.556 15.3132 13.516C15.3132 14.392 14.6172 15.076 13.5732 15.076C12.6372 15.076 11.9172 14.716 11.3892 14.068L10.6812 14.884ZM17.6379 12.004C17.6379 13.984 18.5499 16.144 20.7699 16.144C22.9899 16.144 23.9019 13.984 23.9019 12.004C23.9019 10.024 22.9899 7.876 20.7699 7.876C18.5499 7.876 17.6379 10.024 17.6379 12.004ZM22.6779 12.004C22.6779 13.564 22.1859 15.076 20.7699 15.076C19.3539 15.076 18.8619 13.564 18.8619 12.004C18.8619 10.444 19.3539 8.944 20.7699 8.944C22.1859 8.944 22.6779 10.444 22.6779 12.004ZM25.3052 17.56C25.9172 17.128 26.3612 16.408 26.3612 15.628C26.3612 14.992 25.9652 14.632 25.5212 14.632C25.1132 14.632 24.7892 14.956 24.7892 15.364C24.7892 15.76 25.0652 16.048 25.4372 16.048C25.4972 16.048 25.5932 16.024 25.6172 16.024C25.5572 16.42 25.1852 16.9 24.8012 17.14L25.3052 17.56ZM27.5286 12.004C27.5286 13.984 28.4406 16.144 30.6606 16.144C32.8806 16.144 33.7926 13.984 33.7926 12.004C33.7926 10.024 32.8806 7.876 30.6606 7.876C28.4406 7.876 27.5286 10.024 27.5286 12.004ZM32.5686 12.004C32.5686 13.564 32.0766 15.076 30.6606 15.076C29.2446 15.076 28.7526 13.564 28.7526 12.004C28.7526 10.444 29.2446 8.944 30.6606 8.944C32.0766 8.944 32.5686 10.444 32.5686 12.004ZM34.8997 12.004C34.8997 13.984 35.8117 16.144 38.0317 16.144C40.2517 16.144 41.1637 13.984 41.1637 12.004C41.1637 10.024 40.2517 7.876 38.0317 7.876C35.8117 7.876 34.8997 10.024 34.8997 12.004ZM39.9397 12.004C39.9397 13.564 39.4477 15.076 38.0317 15.076C36.6157 15.076 36.1237 13.564 36.1237 12.004C36.1237 10.444 36.6157 8.944 38.0317 8.944C39.4477 8.944 39.9397 10.444 39.9397 12.004ZM42.2708 12.004C42.2708 13.984 43.1828 16.144 45.4028 16.144C47.6228 16.144 48.5348 13.984 48.5348 12.004C48.5348 10.024 47.6228 7.876 45.4028 7.876C43.1828 7.876 42.2708 10.024 42.2708 12.004ZM47.3108 12.004C47.3108 13.564 46.8188 15.076 45.4028 15.076C43.9868 15.076 43.4948 13.564 43.4948 12.004C43.4948 10.444 43.9868 8.944 45.4028 8.944C46.8188 8.944 47.3108 10.444 47.3108 12.004Z" fill="white"/>
<path d="M9.29978 79H14.9398V77.944H11.2078C13.4038 76.252 14.9038 74.848 14.9038 73.288C14.9038 71.692 13.5478 70.876 12.1078 70.876C10.9918 70.876 9.89978 71.32 9.23978 72.148L9.94778 72.928C10.4398 72.34 11.1718 71.944 12.1198 71.944C12.8998 71.944 13.6798 72.352 13.6798 73.288C13.6798 74.548 12.2998 75.748 9.29978 78.052V79ZM16.9536 80.56C17.5656 80.128 18.0096 79.408 18.0096 78.628C18.0096 77.992 17.6136 77.632 17.1696 77.632C16.7616 77.632 16.4376 77.956 16.4376 78.364C16.4376 78.76 16.7136 79.048 17.0856 79.048C17.1456 79.048 17.2416 79.024 17.2656 79.024C17.2056 79.42 16.8336 79.9 16.4496 80.14L16.9536 80.56ZM19.177 75.004C19.177 76.984 20.089 79.144 22.309 79.144C24.529 79.144 25.441 76.984 25.441 75.004C25.441 73.024 24.529 70.876 22.309 70.876C20.089 70.876 19.177 73.024 19.177 75.004ZM24.217 75.004C24.217 76.564 23.725 78.076 22.309 78.076C20.893 78.076 20.401 76.564 20.401 75.004C20.401 73.444 20.893 71.944 22.309 71.944C23.725 71.944 24.217 73.444 24.217 75.004ZM26.5481 75.004C26.5481 76.984 27.4601 79.144 29.6801 79.144C31.9001 79.144 32.8121 76.984 32.8121 75.004C32.8121 73.024 31.9001 70.876 29.6801 70.876C27.4601 70.876 26.5481 73.024 26.5481 75.004ZM31.5881 75.004C31.5881 76.564 31.0961 78.076 29.6801 78.076C28.2641 78.076 27.7721 76.564 27.7721 75.004C27.7721 73.444 28.2641 71.944 29.6801 71.944C31.0961 71.944 31.5881 73.444 31.5881 75.004ZM34.2153 80.56C34.8273 80.128 35.2713 79.408 35.2713 78.628C35.2713 77.992 34.8753 77.632 34.4313 77.632C34.0233 77.632 33.6993 77.956 33.6993 78.364C33.6993 78.76 33.9753 79.048 34.3473 79.048C34.4073 79.048 34.5033 79.024 34.5273 79.024C34.4673 79.42 34.0953 79.9 33.7113 80.14L34.2153 80.56ZM36.4387 75.004C36.4387 76.984 37.3507 79.144 39.5707 79.144C41.7907 79.144 42.7027 76.984 42.7027 75.004C42.7027 73.024 41.7907 70.876 39.5707 70.876C37.3507 70.876 36.4387 73.024 36.4387 75.004ZM41.4787 75.004C41.4787 76.564 40.9867 78.076 39.5707 78.076C38.1547 78.076 37.6627 76.564 37.6627 75.004C37.6627 73.444 38.1547 71.944 39.5707 71.944C40.9867 71.944 41.4787 73.444 41.4787 75.004ZM43.8098 75.004C43.8098 76.984 44.7218 79.144 46.9418 79.144C49.1618 79.144 50.0738 76.984 50.0738 75.004C50.0738 73.024 49.1618 70.876 46.9418 70.876C44.7218 70.876 43.8098 73.024 43.8098 75.004ZM48.8498 75.004C48.8498 76.564 48.3578 78.076 46.9418 78.076C45.5258 78.076 45.0338 76.564 45.0338 75.004C45.0338 73.444 45.5258 71.944 46.9418 71.944C48.3578 71.944 48.8498 73.444 48.8498 75.004ZM51.1809 75.004C51.1809 76.984 52.0929 79.144 54.3129 79.144C56.5329 79.144 57.4449 76.984 57.4449 75.004C57.4449 73.024 56.5329 70.876 54.3129 70.876C52.0929 70.876 51.1809 73.024 51.1809 75.004ZM56.2209 75.004C56.2209 76.564 55.7289 78.076 54.3129 78.076C52.8969 78.076 52.4049 76.564 52.4049 75.004C52.4049 73.444 52.8969 71.944 54.3129 71.944C55.7289 71.944 56.2209 73.444 56.2209 75.004Z" fill="white"/>
<path d="M13.9075 142H15.1075V133.996H14.0515L11.9035 136.192L12.6115 136.924L13.9075 135.568V142ZM17.188 143.56C17.8 143.128 18.244 142.408 18.244 141.628C18.244 140.992 17.848 140.632 17.404 140.632C16.996 140.632 16.672 140.956 16.672 141.364C16.672 141.76 16.948 142.048 17.32 142.048C17.38 142.048 17.476 142.024 17.5 142.024C17.44 142.42 17.068 142.9 16.684 143.14L17.188 143.56ZM19.5914 140.884C20.2154 141.664 21.1274 142.144 22.4954 142.144C24.1874 142.144 25.4354 141.112 25.4354 139.468C25.4354 137.824 24.2234 136.9 22.8794 136.9C22.0994 136.9 21.4274 137.224 21.0434 137.608V135.052H24.9074V133.996H19.8434V138.388L20.7074 138.664C21.2354 138.16 21.8114 137.944 22.5074 137.944C23.5394 137.944 24.2234 138.556 24.2234 139.516C24.2234 140.392 23.5274 141.076 22.4834 141.076C21.5474 141.076 20.8274 140.716 20.2994 140.068L19.5914 140.884ZM26.5481 138.004C26.5481 139.984 27.4601 142.144 29.6801 142.144C31.9001 142.144 32.8121 139.984 32.8121 138.004C32.8121 136.024 31.9001 133.876 29.6801 133.876C27.4601 133.876 26.5481 136.024 26.5481 138.004ZM31.5881 138.004C31.5881 139.564 31.0961 141.076 29.6801 141.076C28.2641 141.076 27.7721 139.564 27.7721 138.004C27.7721 136.444 28.2641 134.944 29.6801 134.944C31.0961 134.944 31.5881 136.444 31.5881 138.004ZM34.2153 143.56C34.8273 143.128 35.2713 142.408 35.2713 141.628C35.2713 140.992 34.8753 140.632 34.4313 140.632C34.0233 140.632 33.6993 140.956 33.6993 141.364C33.6993 141.76 33.9753 142.048 34.3473 142.048C34.4073 142.048 34.5033 142.024 34.5273 142.024C34.4673 142.42 34.0953 142.9 33.7113 143.14L34.2153 143.56ZM36.4387 138.004C36.4387 139.984 37.3507 142.144 39.5707 142.144C41.7907 142.144 42.7027 139.984 42.7027 138.004C42.7027 136.024 41.7907 133.876 39.5707 133.876C37.3507 133.876 36.4387 136.024 36.4387 138.004ZM41.4787 138.004C41.4787 139.564 40.9867 141.076 39.5707 141.076C38.1547 141.076 37.6627 139.564 37.6627 138.004C37.6627 136.444 38.1547 134.944 39.5707 134.944C40.9867 134.944 41.4787 136.444 41.4787 138.004ZM43.8098 138.004C43.8098 139.984 44.7218 142.144 46.9418 142.144C49.1618 142.144 50.0738 139.984 50.0738 138.004C50.0738 136.024 49.1618 133.876 46.9418 133.876C44.7218 133.876 43.8098 136.024 43.8098 138.004ZM48.8498 138.004C48.8498 139.564 48.3578 141.076 46.9418 141.076C45.5258 141.076 45.0338 139.564 45.0338 138.004C45.0338 136.444 45.5258 134.944 46.9418 134.944C48.3578 134.944 48.8498 136.444 48.8498 138.004ZM51.1809 138.004C51.1809 139.984 52.0929 142.144 54.3129 142.144C56.5329 142.144 57.4449 139.984 57.4449 138.004C57.4449 136.024 56.5329 133.876 54.3129 133.876C52.0929 133.876 51.1809 136.024 51.1809 138.004ZM56.2209 138.004C56.2209 139.564 55.7289 141.076 54.3129 141.076C52.8969 141.076 52.4049 139.564 52.4049 138.004C52.4049 136.444 52.8969 134.944 54.3129 134.944C55.7289 134.944 56.2209 136.444 56.2209 138.004Z" fill="white"/>
<path d="M13.6731 205H14.8731V196.996H13.8171L11.6691 199.192L12.3771 199.924L13.6731 198.568V205ZM16.9536 206.56C17.5656 206.128 18.0096 205.408 18.0096 204.628C18.0096 203.992 17.6136 203.632 17.1696 203.632C16.7616 203.632 16.4376 203.956 16.4376 204.364C16.4376 204.76 16.7136 205.048 17.0856 205.048C17.1456 205.048 17.2416 205.024 17.2656 205.024C17.2056 205.42 16.8336 205.9 16.4496 206.14L16.9536 206.56ZM19.177 201.004C19.177 202.984 20.089 205.144 22.309 205.144C24.529 205.144 25.441 202.984 25.441 201.004C25.441 199.024 24.529 196.876 22.309 196.876C20.089 196.876 19.177 199.024 19.177 201.004ZM24.217 201.004C24.217 202.564 23.725 204.076 22.309 204.076C20.893 204.076 20.401 202.564 20.401 201.004C20.401 199.444 20.893 197.944 22.309 197.944C23.725 197.944 24.217 199.444 24.217 201.004ZM26.5481 201.004C26.5481 202.984 27.4601 205.144 29.6801 205.144C31.9001 205.144 32.8121 202.984 32.8121 201.004C32.8121 199.024 31.9001 196.876 29.6801 196.876C27.4601 196.876 26.5481 199.024 26.5481 201.004ZM31.5881 201.004C31.5881 202.564 31.0961 204.076 29.6801 204.076C28.2641 204.076 27.7721 202.564 27.7721 201.004C27.7721 199.444 28.2641 197.944 29.6801 197.944C31.0961 197.944 31.5881 199.444 31.5881 201.004ZM34.2153 206.56C34.8273 206.128 35.2713 205.408 35.2713 204.628C35.2713 203.992 34.8753 203.632 34.4313 203.632C34.0233 203.632 33.6993 203.956 33.6993 204.364C33.6993 204.76 33.9753 205.048 34.3473 205.048C34.4073 205.048 34.5033 205.024 34.5273 205.024C34.4673 205.42 34.0953 205.9 33.7113 206.14L34.2153 206.56ZM36.4387 201.004C36.4387 202.984 37.3507 205.144 39.5707 205.144C41.7907 205.144 42.7027 202.984 42.7027 201.004C42.7027 199.024 41.7907 196.876 39.5707 196.876C37.3507 196.876 36.4387 199.024 36.4387 201.004ZM41.4787 201.004C41.4787 202.564 40.9867 204.076 39.5707 204.076C38.1547 204.076 37.6627 202.564 37.6627 201.004C37.6627 199.444 38.1547 197.944 39.5707 197.944C40.9867 197.944 41.4787 199.444 41.4787 201.004ZM43.8098 201.004C43.8098 202.984 44.7218 205.144 46.9418 205.144C49.1618 205.144 50.0738 202.984 50.0738 201.004C50.0738 199.024 49.1618 196.876 46.9418 196.876C44.7218 196.876 43.8098 199.024 43.8098 201.004ZM48.8498 201.004C48.8498 202.564 48.3578 204.076 46.9418 204.076C45.5258 204.076 45.0338 202.564 45.0338 201.004C45.0338 199.444 45.5258 197.944 46.9418 197.944C48.3578 197.944 48.8498 199.444 48.8498 201.004ZM51.1809 201.004C51.1809 202.984 52.0929 205.144 54.3129 205.144C56.5329 205.144 57.4449 202.984 57.4449 201.004C57.4449 199.024 56.5329 196.876 54.3129 196.876C52.0929 196.876 51.1809 199.024 51.1809 201.004ZM56.2209 201.004C56.2209 202.564 55.7289 204.076 54.3129 204.076C52.8969 204.076 52.4049 202.564 52.4049 201.004C52.4049 199.444 52.8969 197.944 54.3129 197.944C55.7289 197.944 56.2209 199.444 56.2209 201.004Z" fill="white"/>
<path d="M19.5914 266.884C20.2154 267.664 21.1274 268.144 22.4954 268.144C24.1874 268.144 25.4354 267.112 25.4354 265.468C25.4354 263.824 24.2234 262.9 22.8794 262.9C22.0994 262.9 21.4274 263.224 21.0434 263.608V261.052H24.9074V259.996H19.8434V264.388L20.7074 264.664C21.2354 264.16 21.8114 263.944 22.5074 263.944C23.5394 263.944 24.2234 264.556 24.2234 265.516C24.2234 266.392 23.5274 267.076 22.4834 267.076C21.5474 267.076 20.8274 266.716 20.2994 266.068L19.5914 266.884ZM26.5481 264.004C26.5481 265.984 27.4601 268.144 29.6801 268.144C31.9001 268.144 32.8121 265.984 32.8121 264.004C32.8121 262.024 31.9001 259.876 29.6801 259.876C27.4601 259.876 26.5481 262.024 26.5481 264.004ZM31.5881 264.004C31.5881 265.564 31.0961 267.076 29.6801 267.076C28.2641 267.076 27.7721 265.564 27.7721 264.004C27.7721 262.444 28.2641 260.944 29.6801 260.944C31.0961 260.944 31.5881 262.444 31.5881 264.004ZM34.2153 269.56C34.8273 269.128 35.2713 268.408 35.2713 267.628C35.2713 266.992 34.8753 266.632 34.4313 266.632C34.0233 266.632 33.6993 266.956 33.6993 267.364C33.6993 267.76 33.9753 268.048 34.3473 268.048C34.4073 268.048 34.5033 268.024 34.5273 268.024C34.4673 268.42 34.0953 268.9 33.7113 269.14L34.2153 269.56ZM36.4387 264.004C36.4387 265.984 37.3507 268.144 39.5707 268.144C41.7907 268.144 42.7027 265.984 42.7027 264.004C42.7027 262.024 41.7907 259.876 39.5707 259.876C37.3507 259.876 36.4387 262.024 36.4387 264.004ZM41.4787 264.004C41.4787 265.564 40.9867 267.076 39.5707 267.076C38.1547 267.076 37.6627 265.564 37.6627 264.004C37.6627 262.444 38.1547 260.944 39.5707 260.944C40.9867 260.944 41.4787 262.444 41.4787 264.004ZM43.8098 264.004C43.8098 265.984 44.7218 268.144 46.9418 268.144C49.1618 268.144 50.0738 265.984 50.0738 264.004C50.0738 262.024 49.1618 259.876 46.9418 259.876C44.7218 259.876 43.8098 262.024 43.8098 264.004ZM48.8498 264.004C48.8498 265.564 48.3578 267.076 46.9418 267.076C45.5258 267.076 45.0338 265.564 45.0338 264.004C45.0338 262.444 45.5258 260.944 46.9418 260.944C48.3578 260.944 48.8498 262.444 48.8498 264.004ZM51.1809 264.004C51.1809 265.984 52.0929 268.144 54.3129 268.144C56.5329 268.144 57.4449 265.984 57.4449 264.004C57.4449 262.024 56.5329 259.876 54.3129 259.876C52.0929 259.876 51.1809 262.024 51.1809 264.004ZM56.2209 264.004C56.2209 265.564 55.7289 267.076 54.3129 267.076C52.8969 267.076 52.4049 265.564 52.4049 264.004C52.4049 262.444 52.8969 260.944 54.3129 260.944C55.7289 260.944 56.2209 262.444 56.2209 264.004Z" fill="white"/>
<path d="M51.1809 327.004C51.1809 328.984 52.0929 331.144 54.3129 331.144C56.5329 331.144 57.4449 328.984 57.4449 327.004C57.4449 325.024 56.5329 322.876 54.3129 322.876C52.0929 322.876 51.1809 325.024 51.1809 327.004ZM56.2209 327.004C56.2209 328.564 55.7289 330.076 54.3129 330.076C52.8969 330.076 52.4049 328.564 52.4049 327.004C52.4049 325.444 52.8969 323.944 54.3129 323.944C55.7289 323.944 56.2209 325.444 56.2209 327.004Z" fill="white"/>
<path d="M109.732 350.884C110.356 351.664 111.268 352.144 112.636 352.144C114.328 352.144 115.576 351.112 115.576 349.468C115.576 347.824 114.364 346.9 113.02 346.9C112.24 346.9 111.568 347.224 111.184 347.608V345.052H115.048V343.996H109.984V348.388L110.848 348.664C111.376 348.16 111.952 347.944 112.648 347.944C113.68 347.944 114.364 348.556 114.364 349.516C114.364 350.392 113.668 351.076 112.624 351.076C111.688 351.076 110.968 350.716 110.44 350.068L109.732 350.884ZM120.118 352H124.954V350.944H121.318V343.996H120.118V352ZM126.271 352H127.471V348.916H129.643C131.275 348.916 132.199 347.788 132.199 346.456C132.199 345.124 131.287 343.996 129.643 343.996H126.271V352ZM130.963 346.456C130.963 347.296 130.351 347.86 129.487 347.86H127.471V345.052H129.487C130.351 345.052 130.963 345.616 130.963 346.456ZM138.229 352H139.549L136.369 343.996H134.869L131.689 352H133.009L133.657 350.344H137.581L138.229 352ZM135.613 345.04L137.233 349.276H134.005L135.613 345.04Z" fill="white"/>
<path d="M199.948 351.208C200.464 351.76 201.196 352.132 202.204 352.132C204.484 352.132 205.6 350.236 205.6 348.004C205.6 345.796 204.7 343.864 202.396 343.864C200.632 343.864 199.516 345.088 199.516 346.516C199.516 348.22 200.74 349.096 202.18 349.096C203.152 349.096 204.016 348.448 204.388 347.908V348.184C204.388 349.6 203.74 351.064 202.204 351.064C201.412 351.064 200.932 350.764 200.524 350.308L199.948 351.208ZM204.352 346.984C203.944 347.632 203.212 348.052 202.48 348.052C201.532 348.052 200.74 347.548 200.74 346.48C200.74 345.772 201.316 344.932 202.456 344.932C203.764 344.932 204.28 346.06 204.352 346.984ZM210.13 352H214.966V350.944H211.33V343.996H210.13V352ZM216.283 352H217.483V348.916H219.655C221.287 348.916 222.211 347.788 222.211 346.456C222.211 345.124 221.299 343.996 219.655 343.996H216.283V352ZM220.975 346.456C220.975 347.296 220.363 347.86 219.499 347.86H217.483V345.052H219.499C220.363 345.052 220.975 345.616 220.975 346.456ZM228.241 352H229.561L226.381 343.996H224.881L221.701 352H223.021L223.669 350.344H227.593L228.241 352ZM225.625 345.04L227.245 349.276H224.017L225.625 345.04Z" fill="white"/>
<path d="M291.22 352H292.42V343.996H291.364L289.216 346.192L289.924 346.924L291.22 345.568V352ZM294.045 350.884C294.669 351.664 295.581 352.144 296.949 352.144C298.641 352.144 299.889 351.112 299.889 349.468C299.889 347.824 298.677 346.9 297.333 346.9C296.553 346.9 295.881 347.224 295.497 347.608V345.052H299.361V343.996H294.297V348.388L295.161 348.664C295.689 348.16 296.265 347.944 296.961 347.944C297.993 347.944 298.677 348.556 298.677 349.516C298.677 350.392 297.981 351.076 296.937 351.076C296.001 351.076 295.281 350.716 294.753 350.068L294.045 350.884ZM304.431 352H309.267V350.944H305.631V343.996H304.431V352ZM310.583 352H311.783V348.916H313.955C315.587 348.916 316.511 347.788 316.511 346.456C316.511 345.124 315.599 343.996 313.955 343.996H310.583V352ZM315.275 346.456C315.275 347.296 314.663 347.86 313.799 347.86H311.783V345.052H313.799C314.663 345.052 315.275 345.616 315.275 346.456ZM322.541 352H323.861L320.681 343.996H319.181L316.001 352H317.321L317.969 350.344H321.893L322.541 352ZM319.925 345.04L321.545 349.276H318.317L319.925 345.04Z" fill="white"/>
<path d="M383.732 350.884C384.356 351.664 385.268 352.144 386.636 352.144C388.328 352.144 389.576 351.112 389.576 349.468C389.576 347.824 388.364 346.9 387.02 346.9C386.24 346.9 385.568 347.224 385.184 347.608V345.052H389.048V343.996H383.984V348.388L384.848 348.664C385.376 348.16 385.952 347.944 386.648 347.944C387.68 347.944 388.364 348.556 388.364 349.516C388.364 350.392 387.668 351.076 386.624 351.076C385.688 351.076 384.968 350.716 384.44 350.068L383.732 350.884ZM390.701 349.96C390.701 351.364 392.057 352.144 393.677 352.144C395.273 352.144 396.629 351.352 396.629 349.96C396.629 348.916 395.765 348.184 394.781 347.872C395.693 347.596 396.509 346.996 396.509 345.964C396.509 344.512 395.033 343.876 393.677 343.876C392.285 343.876 390.833 344.512 390.833 345.964C390.833 346.996 391.637 347.596 392.549 347.872C391.565 348.184 390.701 348.916 390.701 349.96ZM395.297 346.144C395.297 346.996 394.169 347.308 393.677 347.392C393.185 347.308 392.045 346.996 392.045 346.144C392.045 345.388 392.741 344.944 393.677 344.944C394.577 344.944 395.297 345.388 395.297 346.144ZM395.429 349.816C395.429 350.596 394.601 351.076 393.677 351.076C392.717 351.076 391.913 350.596 391.913 349.816C391.913 348.88 393.173 348.472 393.677 348.412C394.157 348.472 395.429 348.88 395.429 349.816ZM401.173 352H406.009V350.944H402.373V343.996H401.173V352ZM407.326 352H408.526V348.916H410.698C412.33 348.916 413.254 347.788 413.254 346.456C413.254 345.124 412.342 343.996 410.698 343.996H407.326V352ZM412.018 346.456C412.018 347.296 411.406 347.86 410.542 347.86H408.526V345.052H410.542C411.406 345.052 412.018 345.616 412.018 346.456ZM419.284 352H420.604L417.424 343.996H415.924L412.744 352H414.064L414.712 350.344H418.636L419.284 352ZM416.668 345.04L418.288 349.276H415.06L416.668 345.04Z" fill="white"/>
<path d="M482.22 352H483.42V343.996H482.364L480.216 346.192L480.924 346.924L482.22 345.568V352ZM492.062 352.144C493.634 352.144 494.606 351.388 495.242 350.452L494.222 349.912C493.802 350.584 493.01 351.076 492.062 351.076C490.442 351.076 489.194 349.792 489.194 348.004C489.194 346.204 490.442 344.932 492.062 344.932C493.01 344.932 493.802 345.424 494.222 346.096L495.242 345.556C494.618 344.62 493.634 343.864 492.062 343.864C489.782 343.864 487.958 345.544 487.958 348.004C487.958 350.464 489.782 352.144 492.062 352.144ZM496.439 352H497.639V348.916H499.811C501.443 348.916 502.367 347.788 502.367 346.456C502.367 345.124 501.455 343.996 499.811 343.996H496.439V352ZM501.131 346.456C501.131 347.296 500.519 347.86 499.655 347.86H497.639V345.052H499.655C500.519 345.052 501.131 345.616 501.131 346.456ZM508.397 352H509.717L506.537 343.996H505.037L501.857 352H503.177L503.825 350.344H507.749L508.397 352ZM505.781 345.04L507.401 349.276H504.173L505.781 345.04Z" fill="white"/>
<rect x="274" y="297" width="31" height="30" fill="#FFD574"/>
<rect x="309" y="299" width="31" height="28" fill="#40D2AC"/>
<rect x="369" y="165" width="31" height="162" fill="#FFD574"/>
<rect x="404" y="182" width="31" height="145" fill="#40D2AC"/>
<rect x="462" y="43" width="31" height="284" fill="#FFD574"/>
<rect x="497" y="55" width="31" height="272" fill="#40D2AC"/>
<path d="M214.844 388H216.044V381.052H218.516V379.996H212.36V381.052H214.844V388ZM219.767 388H222.623C225.119 388 226.775 386.32 226.775 384.004C226.775 381.7 225.119 379.996 222.623 379.996H219.767V388ZM220.967 386.944V381.052H222.623C224.507 381.052 225.539 382.36 225.539 384.004C225.539 385.624 224.471 386.944 222.623 386.944H220.967ZM227.736 386.872C228.42 387.628 229.464 388.144 230.892 388.144C233.052 388.144 233.916 386.98 233.916 385.732C233.916 384.028 232.392 383.62 231.084 383.272C230.088 383.02 229.224 382.792 229.224 382.072C229.224 381.4 229.836 380.944 230.724 380.944C231.588 380.944 232.428 381.232 233.04 381.88L233.736 380.992C233.028 380.272 232.056 379.876 230.82 379.876C229.152 379.876 227.988 380.836 227.988 382.156C227.988 383.788 229.476 384.16 230.76 384.496C231.78 384.76 232.692 385 232.692 385.84C232.692 386.416 232.236 387.076 230.94 387.076C229.824 387.076 228.96 386.548 228.42 385.948L227.736 386.872ZM239.78 390.388L240.44 389.884C239.66 388.384 239.204 387.028 239.204 385.084C239.204 383.14 239.66 381.784 240.44 380.272L239.78 379.78C238.676 381.22 238.028 383.152 238.028 385.084C238.028 387.016 238.676 388.96 239.78 390.388ZM241.156 385.096C241.156 386.836 242.356 388.144 244.108 388.144C245.2 388.144 245.86 387.688 246.28 387.124L245.56 386.464C245.212 386.944 244.744 387.184 244.156 387.184C243.016 387.184 242.284 386.296 242.284 385.096C242.284 383.896 243.016 383.02 244.156 383.02C244.744 383.02 245.212 383.248 245.56 383.74L246.28 383.08C245.86 382.516 245.2 382.06 244.108 382.06C242.356 382.06 241.156 383.356 241.156 385.096ZM251.381 388H252.461V382.204H251.381V386.368C251.057 386.8 250.445 387.184 249.773 387.184C249.029 387.184 248.549 386.896 248.549 385.936V382.204H247.469V386.296C247.469 387.52 248.081 388.144 249.317 388.144C250.205 388.144 250.937 387.688 251.381 387.208V388ZM254.173 388H255.253V383.968C255.505 383.536 256.237 383.128 256.777 383.128C256.921 383.128 257.041 383.14 257.149 383.164V382.072C256.381 382.072 255.697 382.516 255.253 383.092V382.204H254.173V388ZM258.227 388H259.307V383.968C259.559 383.536 260.291 383.128 260.831 383.128C260.975 383.128 261.095 383.14 261.203 383.164V382.072C260.435 382.072 259.751 382.516 259.307 383.092V382.204H258.227V388ZM261.922 385.096C261.922 386.92 263.194 388.144 264.922 388.144C265.858 388.144 266.674 387.844 267.25 387.28L266.746 386.572C266.314 387.016 265.642 387.256 265.03 387.256C263.866 387.256 263.146 386.44 263.062 385.456H267.646V385.192C267.646 383.416 266.566 382.06 264.826 382.06C263.134 382.06 261.922 383.416 261.922 385.096ZM264.826 382.948C266.05 382.948 266.566 383.908 266.59 384.676H263.05C263.11 383.884 263.662 382.948 264.826 382.948ZM272.909 388H273.989V383.932C273.989 382.708 273.353 382.06 272.129 382.06C271.229 382.06 270.461 382.552 270.077 383.02V382.204H268.997V388H270.077V383.86C270.389 383.428 271.001 383.02 271.673 383.02C272.417 383.02 272.909 383.332 272.909 384.292V388ZM277.296 388.144C277.86 388.144 278.196 387.988 278.424 387.772L278.148 386.956C278.04 387.076 277.812 387.184 277.56 387.184C277.188 387.184 276.996 386.884 276.996 386.476V383.152H278.172V382.204H276.996V380.62H275.916V382.204H274.956V383.152H275.916V386.716C275.916 387.628 276.384 388.144 277.296 388.144ZM281.958 387.244C282.546 387.844 283.398 388.144 284.37 388.144C285.894 388.144 286.71 387.364 286.71 386.368C286.71 385.036 285.51 384.76 284.502 384.532C283.782 384.364 283.158 384.196 283.158 383.692C283.158 383.224 283.614 382.936 284.346 382.936C285.078 382.936 285.726 383.236 286.062 383.644L286.542 382.888C286.05 382.42 285.33 382.06 284.334 382.06C282.918 382.06 282.126 382.852 282.126 383.776C282.126 385.024 283.278 385.288 284.262 385.516C285.006 385.684 285.666 385.876 285.666 386.452C285.666 386.944 285.234 387.28 284.418 387.28C283.638 387.28 282.87 386.884 282.474 386.452L281.958 387.244ZM289.671 388.144C290.235 388.144 290.571 387.988 290.799 387.772L290.523 386.956C290.415 387.076 290.187 387.184 289.935 387.184C289.563 387.184 289.371 386.884 289.371 386.476V383.152H290.547V382.204H289.371V380.62H288.291V382.204H287.331V383.152H288.291V386.716C288.291 387.628 288.759 388.144 289.671 388.144ZM291.743 388H292.823V383.968C293.075 383.536 293.807 383.128 294.347 383.128C294.491 383.128 294.611 383.14 294.719 383.164V382.072C293.951 382.072 293.267 382.516 292.823 383.092V382.204H291.743V388ZM299.71 388H300.79V382.204H299.71V386.368C299.386 386.8 298.774 387.184 298.102 387.184C297.358 387.184 296.878 386.896 296.878 385.936V382.204H295.798V386.296C295.798 387.52 296.41 388.144 297.646 388.144C298.534 388.144 299.266 387.688 299.71 387.208V388ZM302.141 385.096C302.141 386.836 303.341 388.144 305.093 388.144C306.185 388.144 306.845 387.688 307.265 387.124L306.545 386.464C306.197 386.944 305.729 387.184 305.141 387.184C304.001 387.184 303.269 386.296 303.269 385.096C303.269 383.896 304.001 383.02 305.141 383.02C305.729 383.02 306.197 383.248 306.545 383.74L307.265 383.08C306.845 382.516 306.185 382.06 305.093 382.06C303.341 382.06 302.141 383.356 302.141 385.096ZM310.05 388.144C310.614 388.144 310.95 387.988 311.178 387.772L310.902 386.956C310.794 387.076 310.566 387.184 310.314 387.184C309.942 387.184 309.75 386.884 309.75 386.476V383.152H310.926V382.204H309.75V380.62H308.67V382.204H307.71V383.152H308.67V386.716C308.67 387.628 309.138 388.144 310.05 388.144ZM316.034 388H317.114V382.204H316.034V386.368C315.71 386.8 315.098 387.184 314.426 387.184C313.682 387.184 313.202 386.896 313.202 385.936V382.204H312.122V386.296C312.122 387.52 312.734 388.144 313.97 388.144C314.858 388.144 315.59 387.688 316.034 387.208V388ZM318.825 388H319.905V383.968C320.157 383.536 320.889 383.128 321.429 383.128C321.573 383.128 321.693 383.14 321.801 383.164V382.072C321.033 382.072 320.349 382.516 319.905 383.092V382.204H318.825V388ZM322.52 385.096C322.52 386.92 323.792 388.144 325.52 388.144C326.456 388.144 327.272 387.844 327.848 387.28L327.344 386.572C326.912 387.016 326.24 387.256 325.628 387.256C324.464 387.256 323.744 386.44 323.66 385.456H328.244V385.192C328.244 383.416 327.164 382.06 325.424 382.06C323.732 382.06 322.52 383.416 322.52 385.096ZM325.424 382.948C326.648 382.948 327.164 383.908 327.188 384.676H323.648C323.708 383.884 324.26 382.948 325.424 382.948ZM330.182 385.084C330.182 387.028 329.726 388.384 328.934 389.884L329.594 390.388C330.71 388.96 331.358 387.016 331.358 385.084C331.358 383.152 330.71 381.22 329.594 379.78L328.934 380.272C329.726 381.784 330.182 383.14 330.182 385.084Z" fill="white"/>
<rect x="192" y="379" width="11" height="11" fill="#FFD574"/>
<path d="M376.844 388H378.044V381.052H380.516V379.996H374.36V381.052H376.844V388ZM381.767 388H384.623C387.119 388 388.775 386.32 388.775 384.004C388.775 381.7 387.119 379.996 384.623 379.996H381.767V388ZM382.967 386.944V381.052H384.623C386.507 381.052 387.539 382.36 387.539 384.004C387.539 385.624 386.471 386.944 384.623 386.944H382.967ZM389.736 386.872C390.42 387.628 391.464 388.144 392.892 388.144C395.052 388.144 395.916 386.98 395.916 385.732C395.916 384.028 394.392 383.62 393.084 383.272C392.088 383.02 391.224 382.792 391.224 382.072C391.224 381.4 391.836 380.944 392.724 380.944C393.588 380.944 394.428 381.232 395.04 381.88L395.736 380.992C395.028 380.272 394.056 379.876 392.82 379.876C391.152 379.876 389.988 380.836 389.988 382.156C389.988 383.788 391.476 384.16 392.76 384.496C393.78 384.76 394.692 385 394.692 385.84C394.692 386.416 394.236 387.076 392.94 387.076C391.824 387.076 390.96 386.548 390.42 385.948L389.736 386.872ZM401.78 390.388L402.44 389.884C401.66 388.384 401.204 387.028 401.204 385.084C401.204 383.14 401.66 381.784 402.44 380.272L401.78 379.78C400.676 381.22 400.028 383.152 400.028 385.084C400.028 387.016 400.676 388.96 401.78 390.388ZM410.428 388H411.628V379.996H409.912L407.584 385.744L405.256 379.996H403.54V388H404.74V381.64L407.332 388H407.836L410.428 381.64V388ZM415.952 388.144C417.764 388.144 418.88 386.776 418.88 385.096C418.88 383.428 417.764 382.06 415.952 382.06C414.152 382.06 413.024 383.428 413.024 385.096C413.024 386.776 414.152 388.144 415.952 388.144ZM415.952 387.184C414.8 387.184 414.152 386.2 414.152 385.096C414.152 384.004 414.8 383.02 415.952 383.02C417.116 383.02 417.752 384.004 417.752 385.096C417.752 386.2 417.116 387.184 415.952 387.184ZM422.819 388.144C424.631 388.144 425.747 386.776 425.747 385.096C425.747 383.428 424.631 382.06 422.819 382.06C421.019 382.06 419.891 383.428 419.891 385.096C419.891 386.776 421.019 388.144 422.819 388.144ZM422.819 387.184C421.667 387.184 421.019 386.2 421.019 385.096C421.019 384.004 421.667 383.02 422.819 383.02C423.983 383.02 424.619 384.004 424.619 385.096C424.619 386.2 423.983 387.184 422.819 387.184ZM427.118 388H428.198V379.996H427.118V388ZM430.507 385.084C430.507 387.028 430.051 388.384 429.259 389.884L429.919 390.388C431.035 388.96 431.683 387.016 431.683 385.084C431.683 383.152 431.035 381.22 429.919 379.78L429.259 380.272C430.051 381.784 430.507 383.14 430.507 385.084Z" fill="white"/>
<rect x="355" y="379" width="11" height="11" fill="#40D2AC"/>
</svg>
