<svg width="96" height="96" viewBox="0 0 96 96" fill="none" xmlns="http://www.w3.org/2000/svg">
<rect width="96" height="96" rx="12" fill="#EBF4FF"/>
<g clip-path="url(#clip0_107_456)">
<path d="M48 52V68H32C32 63.7565 33.6857 59.6869 36.6863 56.6863C39.6869 53.6857 43.7565 52 48 52ZM48 50C41.37 50 36 44.63 36 38C36 31.37 41.37 26 48 26C54.63 26 60 31.37 60 38C60 44.63 54.63 50 48 50ZM53.19 61.624C52.9364 60.5569 52.9364 59.4451 53.19 58.378L51.206 57.232L53.206 53.768L55.19 54.914C55.9863 54.1598 56.9489 53.6034 58 53.29V51H62V53.29C63.064 53.606 64.024 54.17 64.81 54.914L66.794 53.768L68.794 57.232L66.81 58.378C67.0633 59.4445 67.0633 60.5555 66.81 61.622L68.794 62.768L66.794 66.232L64.81 65.086C64.0137 65.8402 63.0511 66.3966 62 66.71V69H58V66.71C56.9489 66.3966 55.9863 65.8402 55.19 65.086L53.206 66.232L51.206 62.768L53.19 61.624ZM60 58C59.4696 58 58.9609 58.2107 58.5858 58.5858C58.2107 58.9609 58 59.4696 58 60C58 60.5304 58.2107 61.0391 58.5858 61.4142C58.9609 61.7893 59.4696 62 60 62C60.5304 62 61.0391 61.7893 61.4142 61.4142C61.7893 61.0391 62 60.5304 62 60C62 59.4696 61.7893 58.9609 61.4142 58.5858C61.0391 58.2107 60.5304 58 60 58Z" fill="#3280E3"/>
</g>
<defs>
<clipPath id="clip0_107_456">
<rect width="48" height="48" fill="white" transform="translate(24 24)"/>
</clipPath>
</defs>
</svg>
