<svg width="96" height="96" viewBox="0 0 96 96" fill="none" xmlns="http://www.w3.org/2000/svg">
<rect width="96" height="96" rx="12" fill="#E9FAF5"/>
<g clip-path="url(#clip0_107_448)">
<path d="M30 54V30C30 29.4696 30.2107 28.9609 30.5858 28.5858C30.9609 28.2107 31.4696 28 32 28H64C64.5304 28 65.0391 28.2107 65.4142 28.5858C65.7893 28.9609 66 29.4696 66 30V62C66 63.5913 65.3679 65.1174 64.2426 66.2426C63.1174 67.3679 61.5913 68 60 68H32C30.4087 68 28.8826 67.3679 27.7574 66.2426C26.6321 65.1174 26 63.5913 26 62V58H58V62C58 62.5304 58.2107 63.0391 58.5858 63.4142C58.9609 63.7893 59.4696 64 60 64C60.5304 64 61.0391 63.7893 61.4142 63.4142C61.7893 63.0391 62 62.5304 62 62V54H30Z" fill="#40D2AC"/>
</g>
<defs>
<clipPath id="clip0_107_448">
<rect width="48" height="48" fill="white" transform="translate(24 24)"/>
</clipPath>
</defs>
</svg>
