<svg width="96" height="96" viewBox="0 0 96 96" fill="none" xmlns="http://www.w3.org/2000/svg">
<rect width="96" height="96" rx="12" fill="#EEEDFF"/>
<g clip-path="url(#clip0_107_452)">
<path d="M48 68C36.954 68 28 59.046 28 48C28 36.954 36.954 28 48 28C59.046 28 68 36.954 68 48C68 59.046 59.046 68 48 68ZM41 52V56H46V60H50V56H52C53.3261 56 54.5979 55.4732 55.5355 54.5355C56.4732 53.5979 57 52.3261 57 51C57 49.6739 56.4732 48.4021 55.5355 47.4645C54.5979 46.5268 53.3261 46 52 46H44C43.7348 46 43.4804 45.8946 43.2929 45.7071C43.1054 45.5196 43 45.2652 43 45C43 44.7348 43.1054 44.4804 43.2929 44.2929C43.4804 44.1054 43.7348 44 44 44H55V40H50V36H46V40H44C42.6739 40 41.4021 40.5268 40.4645 41.4645C39.5268 42.4021 39 43.6739 39 45C39 46.3261 39.5268 47.5979 40.4645 48.5355C41.4021 49.4732 42.6739 50 44 50H52C52.2652 50 52.5196 50.1054 52.7071 50.2929C52.8946 50.4804 53 50.7348 53 51C53 51.2652 52.8946 51.5196 52.7071 51.7071C52.5196 51.8946 52.2652 52 52 52H41Z" fill="#4A3AFF"/>
</g>
<defs>
<clipPath id="clip0_107_452">
<rect width="48" height="48" fill="white" transform="translate(24 24)"/>
</clipPath>
</defs>
</svg>
