<svg width="56" height="56" viewBox="0 0 56 56" fill="none" xmlns="http://www.w3.org/2000/svg">
<circle cx="28" cy="28" r="28" fill="#405CD2"/>
<path d="M16 27C15.4477 27 15 27.4477 15 28C15 28.5523 15.4477 29 16 29V27ZM39.7071 28.7071C40.0976 28.3166 40.0976 27.6834 39.7071 27.2929L33.3431 20.9289C32.9526 20.5384 32.3195 20.5384 31.9289 20.9289C31.5384 21.3195 31.5384 21.9526 31.9289 22.3431L37.5858 28L31.9289 33.6569C31.5384 34.0474 31.5384 34.6805 31.9289 35.0711C32.3195 35.4616 32.9526 35.4616 33.3431 35.0711L39.7071 28.7071ZM16 29L39 29V27L16 27V29Z" fill="white"/>
</svg>
