<svg width="115" height="18" viewBox="0 0 115 18" fill="none" xmlns="http://www.w3.org/2000/svg">
<g clip-path="url(#clip0_107_428)">
<path d="M103.06 15.0001C104.169 15.0372 105.274 14.8516 106.31 14.4543C107.346 14.057 108.292 13.4561 109.092 12.687C109.892 11.9179 110.53 10.9962 110.967 9.97651C111.405 8.9568 111.634 7.85972 111.64 6.75009C112.148 6.12115 112.526 5.39697 112.75 4.62009C112.767 4.55871 112.765 4.4938 112.746 4.43317C112.727 4.37255 112.69 4.31879 112.641 4.27837C112.592 4.23795 112.532 4.2126 112.469 4.20536C112.406 4.19813 112.342 4.20932 112.285 4.23759C112.019 4.36558 111.72 4.40693 111.429 4.3558C111.139 4.30467 110.871 4.16365 110.665 3.95259C110.402 3.66428 110.083 3.43174 109.728 3.26876C109.374 3.10579 108.99 3.01568 108.599 3.00379C108.209 2.9919 107.821 3.05847 107.456 3.19955C107.092 3.34062 106.76 3.55334 106.48 3.82509C106.096 4.19684 105.815 4.66156 105.664 5.1741C105.513 5.68664 105.497 6.22956 105.617 6.75009C103.105 6.90009 101.38 5.70759 100 4.07259C99.9585 4.02564 99.9043 3.99178 99.8439 3.97515C99.7835 3.95851 99.7196 3.95981 99.66 3.9789C99.6003 3.99799 99.5475 4.03404 99.508 4.08264C99.4685 4.13124 99.444 4.1903 99.4375 4.25259C99.1746 5.71091 99.3642 7.21476 99.981 8.56215C100.598 9.90954 101.612 11.0359 102.888 11.7901C102.032 12.771 100.831 13.3836 99.535 13.5001C99.4656 13.5116 99.4015 13.5445 99.3517 13.5943C99.3019 13.6441 99.2689 13.7081 99.2573 13.7776C99.2457 13.847 99.2562 13.9183 99.2871 13.9815C99.3181 14.0447 99.368 14.0967 99.43 14.1301C100.558 14.6936 101.799 14.9912 103.06 15.0001Z" fill="white" fill-opacity="0.8"/>
</g>
<g clip-path="url(#clip1_107_428)">
<path d="M11.3625 6.29983C10.7877 6.29786 10.2181 6.40925 9.68634 6.62764C9.1546 6.84602 8.67114 7.16712 8.26363 7.57254C7.85611 7.97797 7.53254 8.45977 7.31142 8.99038C7.0903 9.52099 6.97598 10.09 6.975 10.6648V15.0748C6.975 15.2539 7.04611 15.4255 7.1727 15.5521C7.29929 15.6787 7.47098 15.7498 7.65 15.7498H9.225C9.40402 15.7498 9.57571 15.6787 9.7023 15.5521C9.82888 15.4255 9.9 15.2539 9.9 15.0748V10.6648C9.89985 10.4604 9.94279 10.2582 10.026 10.0715C10.1093 9.88471 10.2309 9.71761 10.383 9.58104C10.5352 9.44446 10.7144 9.34149 10.909 9.27882C11.1036 9.21615 11.3093 9.1952 11.5125 9.21733C11.877 9.26324 12.212 9.44133 12.4539 9.71781C12.6958 9.9943 12.8279 10.35 12.825 10.7173V15.0748C12.825 15.2539 12.8961 15.4255 13.0227 15.5521C13.1493 15.6787 13.321 15.7498 13.5 15.7498H15.075C15.254 15.7498 15.4257 15.6787 15.5523 15.5521C15.6789 15.4255 15.75 15.2539 15.75 15.0748V10.6648C15.749 10.09 15.6347 9.52099 15.4136 8.99038C15.1925 8.45977 14.8689 7.97797 14.4614 7.57254C14.0539 7.16712 13.5704 6.84602 13.0387 6.62764C12.5069 6.40925 11.9373 6.29786 11.3625 6.29983Z" fill="white" fill-opacity="0.8"/>
<path d="M4.95 6.9751H2.925C2.55221 6.9751 2.25 7.27731 2.25 7.6501V15.0751C2.25 15.4479 2.55221 15.7501 2.925 15.7501H4.95C5.32279 15.7501 5.625 15.4479 5.625 15.0751V7.6501C5.625 7.27731 5.32279 6.9751 4.95 6.9751Z" fill="white" fill-opacity="0.8"/>
<path d="M3.9375 5.625C4.86948 5.625 5.625 4.86948 5.625 3.9375C5.625 3.00552 4.86948 2.25 3.9375 2.25C3.00552 2.25 2.25 3.00552 2.25 3.9375C2.25 4.86948 3.00552 5.625 3.9375 5.625Z" fill="white" fill-opacity="0.8"/>
</g>
<g opacity="0.8" clip-path="url(#clip2_107_428)">
<path d="M45.0417 2.62504C45.0417 2.52558 45.0044 2.4302 44.9379 2.35988C44.8715 2.28955 44.7814 2.25004 44.6875 2.25004H42.9167C42.025 2.20301 41.1519 2.53158 40.4883 3.16397C39.8247 3.79637 39.4244 4.68116 39.375 5.62504V7.65004H37.6042C37.5102 7.65004 37.4202 7.68955 37.3537 7.75988C37.2873 7.8302 37.25 7.92558 37.25 8.02504V9.97504C37.25 10.0745 37.2873 10.1699 37.3537 10.2402C37.4202 10.3105 37.5102 10.35 37.6042 10.35H39.375V15.375C39.375 15.4745 39.4123 15.5699 39.4787 15.6402C39.5452 15.7105 39.6352 15.75 39.7292 15.75H41.8542C41.9481 15.75 42.0382 15.7105 42.1046 15.6402C42.171 15.5699 42.2083 15.4745 42.2083 15.375V10.35H44.0642C44.1429 10.3512 44.2198 10.3246 44.2827 10.2743C44.3455 10.2241 44.3908 10.1531 44.4113 10.0725L44.9212 8.12254C44.9353 8.06713 44.9372 8.00904 44.9268 7.95273C44.9163 7.89643 44.8938 7.84341 44.861 7.79777C44.8281 7.75212 44.7858 7.71507 44.7373 7.68946C44.6888 7.66385 44.6354 7.65036 44.5813 7.65004H42.2083V5.62504C42.226 5.4394 42.3083 5.26737 42.4393 5.14256C42.5702 5.01775 42.7405 4.94911 42.9167 4.95004H44.6875C44.7814 4.95004 44.8715 4.91053 44.9379 4.8402C45.0044 4.76988 45.0417 4.6745 45.0417 4.57504V2.62504Z" fill="white"/>
</g>
<path d="M76.24 8C76.24 8.37974 76.1086 8.75095 75.8625 9.06669C75.6164 9.38244 75.2665 9.62853 74.8572 9.77385C74.4479 9.91917 73.9975 9.95719 73.563 9.88311C73.1285 9.80902 72.7294 9.62616 72.4161 9.35764C72.1028 9.08913 71.8895 8.74702 71.803 8.37457C71.7166 8.00213 71.761 7.61608 71.9305 7.26525C72.1 6.91441 72.3872 6.61455 72.7555 6.40358C73.1239 6.19261 73.557 6.08 74 6.08C74.5939 6.08058 75.1632 6.28305 75.5832 6.643C76.0031 7.00294 76.2393 7.49096 76.24 8ZM81 5.36V10.64C80.9988 11.5308 80.5854 12.3849 79.8506 13.0148C79.1157 13.6447 78.1193 13.999 77.08 14H70.92C69.8807 13.999 68.8843 13.6447 68.1494 13.0148C67.4146 12.3849 67.0012 11.5308 67 10.64V5.36C67.0012 4.46918 67.4146 3.61514 68.1494 2.98524C68.8843 2.35533 69.8807 2.00101 70.92 2H77.08C78.1193 2.00101 79.1157 2.35533 79.8506 2.98524C80.5854 3.61514 80.9988 4.46918 81 5.36ZM77.36 8C77.36 7.43039 77.1629 6.87357 76.7937 6.39996C76.4245 5.92634 75.8998 5.55721 75.2858 5.33923C74.6719 5.12125 73.9963 5.06421 73.3445 5.17534C72.6927 5.28646 72.094 5.56076 71.6241 5.96353C71.1542 6.36631 70.8342 6.87947 70.7046 7.43814C70.5749 7.99681 70.6415 8.57588 70.8958 9.10213C71.1501 9.62838 71.5807 10.0782 72.1333 10.3946C72.6858 10.7111 73.3355 10.88 74 10.88C74.8908 10.8791 75.7449 10.5754 76.3748 10.0355C77.0047 9.4956 77.359 8.76356 77.36 8ZM78.48 4.88C78.48 4.7376 78.4307 4.59839 78.3384 4.47999C78.2461 4.36159 78.1149 4.2693 77.9615 4.21481C77.808 4.16031 77.6391 4.14605 77.4761 4.17383C77.3132 4.20162 77.1635 4.27019 77.046 4.37088C76.9286 4.47158 76.8486 4.59987 76.8161 4.73953C76.7837 4.8792 76.8004 5.02397 76.8639 5.15553C76.9275 5.28709 77.0352 5.39954 77.1733 5.47866C77.3115 5.55777 77.4739 5.6 77.64 5.6C77.8628 5.6 78.0764 5.52414 78.234 5.38912C78.3915 5.25409 78.48 5.07096 78.48 4.88Z" fill="white" fill-opacity="0.8"/>
<defs>
<clipPath id="clip0_107_428">
<rect width="18" height="18" fill="white" transform="translate(97)"/>
</clipPath>
<clipPath id="clip1_107_428">
<rect width="18" height="18" fill="white"/>
</clipPath>
<clipPath id="clip2_107_428">
<rect width="17" height="18" fill="white" transform="translate(33)"/>
</clipPath>
</defs>
</svg>
