<svg width="691" height="771" viewBox="0 0 691 771" fill="none" xmlns="http://www.w3.org/2000/svg">
<g clip-path="url(#clip0_107_119)">
<path d="M200.839 559.509C155.726 533.463 117.584 500.068 93.4744 465.517C62.6854 421.404 53.9574 376.203 67.5575 331.141C86.9175 286.827 118.484 250.313 148.999 214.983C165.593 195.747 182.766 175.876 197.759 155.009C227.707 113.279 246.98 68.6896 267.373 21.4772C272.193 10.3123 277.177 -1.24212 282.277 -12.6236C301.834 -56.3177 331.075 -109.146 384.281 -129.922C427.554 -146.832 478.682 -141.135 540.574 -112.5C563.413 -101.935 583.486 -91.6183 601.997 -80.9308C646.029 -55.5091 680.114 -28.5782 706.223 1.39569C751.575 53.4703 778.125 121.33 783.002 197.632C787.525 268.55 788.998 350.059 765.631 416.817C742.127 483.866 690.043 529.364 601.697 559.985C498.117 595.911 345.372 635.751 215.121 567.387C210.341 564.872 205.553 562.23 200.839 559.509ZM600.609 -78.5366C582.189 -89.1713 562.164 -99.4605 539.421 -109.985C478.231 -138.294 427.806 -143.985 385.253 -127.364C332.995 -106.947 304.101 -54.7263 284.765 -11.5183C279.697 -0.129097 274.695 11.3951 269.875 22.56C249.426 69.9245 230.106 114.642 199.961 156.61C184.909 177.581 167.703 197.508 151.057 216.78C120.672 251.939 89.2756 288.321 70.114 332.074C34.6522 449.622 162.25 534.054 202.214 557.127C206.904 559.835 211.673 562.462 216.4 564.947C345.709 632.822 497.716 593.147 600.82 557.404C688.299 527.063 739.828 482.1 763.018 415.915C786.259 349.641 784.772 268.474 780.252 197.821C775.416 122.139 749.093 54.838 704.144 3.22801C678.228 -26.5403 644.368 -53.2784 600.611 -78.5413L600.609 -78.5366Z" fill="#40D2AC" stroke="#40D2AC" stroke-width="3"/>
</g>
<defs>
<clipPath id="clip0_107_119">
<rect x="378.197" y="-210.142" width="652.642" height="755.215" transform="rotate(30 378.197 -210.142)" fill="white"/>
</clipPath>
</defs>
</svg>
